<?xml version="1.0" encoding="UTF-8"?>
<svg version="1.1" xmlns="http://www.w3.org/2000/svg" width="225" height="208">
<path d="M0 0 C0.88685989 -0.00570007 1.77371979 -0.01140015 2.68745422 -0.01727295 C4.54886706 -0.0266602 6.41029605 -0.03323173 8.27172852 -0.03710938 C11.11568717 -0.04688327 13.95894269 -0.07799252 16.80273438 -0.109375 C18.61848533 -0.11589996 20.4342414 -0.12115242 22.25 -0.125 C23.09592209 -0.1373468 23.94184418 -0.1496936 24.81340027 -0.16241455 C29.50388295 -0.14470037 32.62416557 0.13644791 36.42578125 3.203125 C37.79630862 5.94417975 37.57575377 8.15767778 37.6027832 11.22583008 C37.62203606 13.12338799 37.62203606 13.12338799 37.64167786 15.0592804 C37.64984547 16.44706837 37.65728916 17.83486077 37.6640625 19.22265625 C37.66813803 19.92066534 37.67221355 20.61867443 37.67641258 21.33783531 C37.69727347 25.0329191 37.71157459 28.72796576 37.72094727 32.4230957 C37.73200697 36.23646105 37.76640078 40.04924209 37.80611897 43.86240101 C37.83228816 46.79726737 37.84063935 49.73199463 37.84422874 52.66696739 C37.84909465 54.07237376 37.86070896 55.47777391 37.87926674 56.88306618 C37.90365776 58.8526462 37.9002734 60.82251047 37.89575195 62.79223633 C37.90161819 63.91205399 37.90748444 65.03187164 37.91352844 66.18562317 C37.31547316 69.88555816 36.00846419 71.53886524 33.42578125 74.203125 C30.28580457 75.77311334 26.93401764 75.33257045 23.48779297 75.31665039 C22.66820099 75.31679642 21.84860901 75.31694244 21.00418091 75.3170929 C18.28791685 75.31639474 15.57172087 75.30860688 12.85546875 75.30078125 C10.97502683 75.29891673 9.09458442 75.29749298 7.21414185 75.29649353 C2.25916203 75.29267107 -2.69578858 75.28284308 -7.65075684 75.27178955 C-12.7046672 75.26156961 -17.75858228 75.25699466 -22.8125 75.25195312 C-32.73308576 75.24122059 -42.65364983 75.2241474 -52.57421875 75.203125 C-52.57421875 80.153125 -52.57421875 85.103125 -52.57421875 90.203125 C-49.55974609 90.18572266 -49.55974609 90.18572266 -46.484375 90.16796875 C-44.54500451 90.1610176 -42.60563372 90.15410104 -40.66625977 90.14819336 C-39.31501489 90.14315443 -37.96377549 90.13632323 -36.61254883 90.12768555 C-34.67401441 90.11560081 -32.73544075 90.11042672 -30.796875 90.10546875 C-29.04515991 90.09761353 -29.04515991 90.09761353 -27.25805664 90.08959961 C-24.57421875 90.203125 -24.57421875 90.203125 -23.57421875 91.203125 C-23.47561744 92.60661235 -23.44342938 94.01492977 -23.44140625 95.421875 C-23.43947266 96.69611328 -23.43947266 96.69611328 -23.4375 97.99609375 C-23.44136719 98.88941406 -23.44523437 99.78273438 -23.44921875 100.703125 C-23.44341797 102.04310547 -23.44341797 102.04310547 -23.4375 103.41015625 C-23.43878906 104.25964844 -23.44007812 105.10914063 -23.44140625 105.984375 C-23.44253418 106.76876953 -23.44366211 107.55316406 -23.44482422 108.36132812 C-23.57421875 110.203125 -23.57421875 110.203125 -24.57421875 111.203125 C-25.96447281 111.31668649 -27.36035216 111.36263893 -28.75512695 111.38012695 C-29.64307449 111.39296219 -30.53102203 111.40579742 -31.44587708 111.41902161 C-32.41248764 111.42640854 -33.37909821 111.43379547 -34.375 111.44140625 C-35.36292038 111.449478 -36.35084076 111.45754974 -37.36869812 111.46586609 C-39.46444941 111.47972539 -41.56022345 111.49043924 -43.65600586 111.49829102 C-46.8629028 111.51549722 -50.0687674 111.55936629 -53.27539062 111.60351562 C-55.30858615 111.61364259 -57.34179046 111.62215868 -59.375 111.62890625 C-60.81580681 111.65516838 -60.81580681 111.65516838 -62.28572083 111.68196106 C-66.06651276 111.66963555 -68.79096261 111.60612481 -72.18066406 109.86206055 C-74.47321677 105.48781536 -74.12289108 101.0954547 -74.0703125 96.234375 C-74.07249535 94.62568542 -74.07249535 94.62568542 -74.07472229 92.98449707 C-74.07306319 90.71831545 -74.06150083 88.45212257 -74.04077148 86.18603516 C-74.01182602 82.7159848 -74.02016127 79.24746279 -74.03320312 75.77734375 C-74.02696545 73.5755134 -74.01857428 71.37368788 -74.0078125 69.171875 C-74.01074814 68.13325317 -74.01368378 67.09463135 -74.01670837 66.02453613 C-74.0040242 65.05673218 -73.99134003 64.08892822 -73.97827148 63.09179688 C-73.9728685 62.2422644 -73.96746552 61.39273193 -73.9618988 60.51745605 C-73.47882906 57.63367778 -72.61561568 56.28264698 -70.57421875 54.203125 C-66.85048409 52.55932972 -62.5085529 53.07068433 -58.50097656 53.08959961 C-57.28578087 53.08938057 -57.28578087 53.08938057 -56.04603577 53.0891571 C-53.37311102 53.08985276 -50.7002563 53.09762894 -48.02734375 53.10546875 C-46.17218056 53.10733416 -44.31701688 53.10875748 -42.46185303 53.10975647 C-37.58252601 53.11357195 -32.70322882 53.12339398 -27.82391357 53.13446045 C-22.84355065 53.14469539 -17.86318291 53.14925856 -12.8828125 53.15429688 C-3.11326815 53.1650171 6.65625407 53.18208191 16.42578125 53.203125 C16.26312271 52.10995468 16.10046417 51.01678436 15.93287659 49.89048767 C15.48258695 46.6161898 15.31029733 43.56764994 15.328125 40.26953125 C15.33295898 38.67915039 15.33295898 38.67915039 15.33789062 37.05664062 C15.35045898 35.42758789 15.35045898 35.42758789 15.36328125 33.765625 C15.36779297 32.65251953 15.37230469 31.53941406 15.37695312 30.39257812 C15.38866918 27.66273704 15.40660234 24.93292386 15.42578125 22.203125 C10.80578125 22.203125 6.18578125 22.203125 1.42578125 22.203125 C1.35230469 25.09191406 1.35230469 25.09191406 1.27734375 28.0390625 C1.20232775 30.55209845 1.12677943 33.06511856 1.05078125 35.578125 C1.01984375 36.84914062 0.98890625 38.12015625 0.95703125 39.4296875 C0.91835937 40.64140625 0.8796875 41.853125 0.83984375 43.1015625 C0.7927124 44.78258057 0.7927124 44.78258057 0.74462891 46.49755859 C0.42578125 49.203125 0.42578125 49.203125 -1.57421875 51.203125 C-4.44763936 51.40169472 -7.20283863 51.48141446 -10.07421875 51.453125 C-11.25177734 51.46472656 -11.25177734 51.46472656 -12.453125 51.4765625 C-18.32091088 51.45643287 -18.32091088 51.45643287 -20.57421875 49.203125 C-20.83491516 47.31912231 -20.83491516 47.31912231 -20.84887695 45.00048828 C-20.86317497 43.6987114 -20.86317497 43.6987114 -20.87776184 42.37063599 C-20.87685043 41.43106049 -20.87593903 40.49148499 -20.875 39.5234375 C-20.87928513 38.55912811 -20.88357025 37.59481873 -20.88798523 36.60128784 C-20.89373541 34.5585814 -20.89422375 32.51585448 -20.88989258 30.47314453 C-20.88673843 27.34762544 -20.91016315 24.22305781 -20.93554688 21.09765625 C-20.93782037 19.11458453 -20.93852313 17.13151026 -20.9375 15.1484375 C-20.94670975 14.21291046 -20.95591949 13.27738342 -20.96540833 12.31350708 C-20.94025885 8.78400129 -20.86804553 5.9383583 -19.55151367 2.64404297 C-14.48751254 -1.04625641 -6.05979473 0.03066429 0 0 Z " fill="#53D7CA" transform="translate(98.57421875,27.796875)"/>
<path d="M0 0 C6.17464913 -0.12372902 12.34857456 -0.21440144 18.52416992 -0.2746582 C20.6242327 -0.29978051 22.72420823 -0.33388458 24.82397461 -0.37719727 C27.8451084 -0.43794871 30.86508496 -0.46623263 33.88671875 -0.48828125 C34.82335861 -0.51408768 35.75999847 -0.5398941 36.72502136 -0.56648254 C40.9674199 -0.56830208 43.39156045 -0.36175929 47.09277344 1.83886719 C49.9215393 6.52740538 49.69794347 10.68504299 49.62890625 16.06640625 C49.63131821 17.13745102 49.63373016 18.20849579 49.63621521 19.31199646 C49.63523722 21.57221181 49.6218553 23.83245125 49.59692383 26.0925293 C49.56258384 29.55404861 49.57627671 33.01301956 49.59570312 36.47460938 C49.58880557 38.67188588 49.57913401 40.86915579 49.56640625 43.06640625 C49.57384605 44.61963341 49.57384605 44.61963341 49.58143616 46.20423889 C49.56559982 47.16881516 49.54976349 48.13339142 49.53344727 49.12719727 C49.52724869 49.97371353 49.52105011 50.8202298 49.5146637 51.69239807 C48.78008626 54.9860291 47.77666067 56.07651511 45 58 C42.08747474 58.37400179 39.55955535 58.5070566 36.65136719 58.45410156 C35.81197601 58.45468567 34.97258484 58.45526978 34.10775757 58.45587158 C31.33704071 58.45308786 28.56740359 58.42198277 25.796875 58.390625 C23.87445666 58.38316362 21.95203071 58.3774702 20.02960205 58.37347412 C14.9725236 58.35820967 9.9159055 58.31892075 4.85900879 58.2746582 C-0.30226413 58.23372306 -5.4636115 58.21546685 -10.625 58.1953125 C-20.75023468 58.15242725 -30.87500702 58.08207065 -41 58 C-41 68.56 -41 79.12 -41 90 C-36.05 90 -31.1 90 -26 90 C-25.90912109 86.98552734 -25.90912109 86.98552734 -25.81640625 83.91015625 C-25.75384551 81.97077331 -25.69125143 80.03139127 -25.62768555 78.09204102 C-25.58428777 76.74085853 -25.5426163 75.38961947 -25.50268555 74.03833008 C-25.44510048 72.09963299 -25.38085702 70.16113724 -25.31640625 68.22265625 C-25.27974854 67.05484619 -25.24309082 65.88703613 -25.20532227 64.68383789 C-25 62 -25 62 -24 61 C-21.00981839 60.87332236 -18.05305892 60.81479162 -15.0625 60.8125 C-14.22525391 60.80025391 -13.38800781 60.78800781 -12.52539062 60.77539062 C-11.72423828 60.77345703 -10.92308594 60.77152344 -10.09765625 60.76953125 C-9.36039307 60.76542236 -8.62312988 60.76131348 -7.86352539 60.75708008 C-6 61 -6 61 -4 63 C-3.72584534 64.83930969 -3.72584534 64.83930969 -3.69360352 67.0949707 C-3.67761612 67.93957352 -3.66162872 68.78417633 -3.64515686 69.65437317 C-3.63979416 70.56893784 -3.63443146 71.4835025 -3.62890625 72.42578125 C-3.61536354 73.83539375 -3.61536354 73.83539375 -3.60154724 75.27348328 C-3.58702152 77.26489058 -3.57815226 79.25634587 -3.57446289 81.24780273 C-3.56258637 84.29037423 -3.51344093 87.33090497 -3.46289062 90.37304688 C-3.45342435 92.30728176 -3.44619029 94.24152912 -3.44140625 96.17578125 C-3.42187393 97.08427322 -3.40234161 97.9927652 -3.38221741 98.92878723 C-3.4120003 103.11396259 -3.65344933 105.43423798 -5.875 109.06103516 C-10.39492404 111.86550677 -14.32644581 111.8018192 -19.55859375 111.84765625 C-21.09145775 111.88456825 -21.09145775 111.88456825 -22.6552887 111.92222595 C-24.81269694 111.96810198 -26.97039374 112.00180867 -29.12817383 112.02416992 C-32.42365201 112.06233961 -35.71539324 112.14844376 -39.00976562 112.24023438 C-41.10932398 112.27891796 -43.20893584 112.31481792 -45.30859375 112.34765625 C-46.29000839 112.3744899 -47.27142303 112.40132355 -48.28257751 112.42897034 C-49.20696121 112.43315475 -50.13134491 112.43733917 -51.08374023 112.44165039 C-51.89028549 112.45321671 -52.69683075 112.46478302 -53.52781677 112.47669983 C-57.14760692 111.77871219 -59.22796654 110.40968845 -62 108 C-62.7484436 105.00231934 -62.7484436 105.00231934 -62.74462891 101.45898438 C-62.75193024 100.81133621 -62.75923157 100.16368805 -62.76675415 99.49641418 C-62.78293292 97.36111665 -62.75578805 95.22887191 -62.7265625 93.09375 C-62.72552481 91.60689292 -62.72656209 90.12003308 -62.72958374 88.63317871 C-62.72940445 85.5191951 -62.70858272 82.40624879 -62.67236328 79.29248047 C-62.62698551 75.30401855 -62.6259009 71.31707157 -62.63939857 67.32842255 C-62.64608659 64.25879485 -62.63280289 61.18951165 -62.61314011 58.11994934 C-62.6054501 56.64957991 -62.60313391 55.17917211 -62.6063118 53.70878601 C-62.60705499 51.65212213 -62.58177225 49.59738885 -62.54931641 47.54101562 C-62.54010162 46.37171509 -62.53088684 45.20241455 -62.52139282 43.99768066 C-62 41 -62 41 -60.48171997 38.61956787 C-56.9826437 36.33607434 -53.78273699 36.47146077 -49.74316406 36.54589844 C-48.49870766 36.54502228 -48.49870766 36.54502228 -47.22911072 36.54412842 C-44.49085437 36.54691192 -41.75369083 36.57801589 -39.015625 36.609375 C-37.11562698 36.61683646 -35.21562126 36.62252984 -33.31561279 36.62652588 C-28.31771554 36.64178972 -23.32028414 36.68107807 -18.3225708 36.7253418 C-13.22162172 36.76627828 -8.12059729 36.78453343 -3.01953125 36.8046875 C6.98718371 36.84757153 16.9935531 36.91583202 27 37 C27 32.05 27 27.1 27 22 C25.15792969 22.03480469 23.31585938 22.06960937 21.41796875 22.10546875 C19.0078216 22.13360276 16.59766461 22.16090333 14.1875 22.1875 C12.36508789 22.22520508 12.36508789 22.22520508 10.50585938 22.26367188 C8.76079102 22.27817383 8.76079102 22.27817383 6.98046875 22.29296875 C5.90692139 22.3086792 4.83337402 22.32438965 3.72729492 22.34057617 C1 22 1 22 -0.85107422 20.66455078 C-2.64222452 18.06955232 -2.35906935 15.79331721 -2.3125 12.6875 C-2.30863281 11.57761719 -2.30476563 10.46773437 -2.30078125 9.32421875 C-1.99357374 5.92897728 -1.1253626 3.20248124 0 0 Z " fill="#43BDCA" transform="translate(140,81)"/>
<path d="M0 0 C0.88685989 -0.00570007 1.77371979 -0.01140015 2.68745422 -0.01727295 C4.54886706 -0.0266602 6.41029605 -0.03323173 8.27172852 -0.03710938 C11.11568717 -0.04688327 13.95894269 -0.07799252 16.80273438 -0.109375 C18.61848533 -0.11589996 20.4342414 -0.12115242 22.25 -0.125 C23.09592209 -0.1373468 23.94184418 -0.1496936 24.81340027 -0.16241455 C29.50388295 -0.14470037 32.62416557 0.13644791 36.42578125 3.203125 C37.81003536 5.97163323 37.54538087 8.20731684 37.53930664 11.30517578 C37.53923111 12.58635284 37.53915558 13.86752991 37.53907776 15.18753052 C37.53397073 16.59116657 37.52875473 17.99480223 37.5234375 19.3984375 C37.52157271 20.83047435 37.52014909 22.26251184 37.51914978 23.69454956 C37.51532944 27.46585854 37.50550327 31.23712907 37.4944458 35.00842285 C37.4842213 38.85587036 37.47964993 42.70332407 37.47460938 46.55078125 C37.46388058 54.10158003 37.44680994 61.65234713 37.42578125 69.203125 C36.76578125 69.203125 36.10578125 69.203125 35.42578125 69.203125 C35.42578125 63.923125 35.42578125 58.643125 35.42578125 53.203125 C34.43578125 53.698125 34.43578125 53.698125 33.42578125 54.203125 C32.05029969 54.28621138 30.67092329 54.31048516 29.29296875 54.30078125 C28.56706543 54.29828369 27.84116211 54.29578613 27.09326172 54.29321289 C25.71098389 54.27955688 25.71098389 54.27955688 24.30078125 54.265625 C21.37203125 54.245 18.44328125 54.224375 15.42578125 54.203125 C15.42578125 43.643125 15.42578125 33.083125 15.42578125 22.203125 C10.80578125 22.203125 6.18578125 22.203125 1.42578125 22.203125 C1.37679687 24.12898438 1.3278125 26.05484375 1.27734375 28.0390625 C1.20232775 30.55209845 1.12677943 33.06511856 1.05078125 35.578125 C1.004375 37.48464844 1.004375 37.48464844 0.95703125 39.4296875 C0.91835937 40.64140625 0.8796875 41.853125 0.83984375 43.1015625 C0.80842285 44.22224121 0.77700195 45.34291992 0.74462891 46.49755859 C0.42578125 49.203125 0.42578125 49.203125 -1.57421875 51.203125 C-4.44763936 51.40169472 -7.20283863 51.48141446 -10.07421875 51.453125 C-11.25177734 51.46472656 -11.25177734 51.46472656 -12.453125 51.4765625 C-18.32091088 51.45643287 -18.32091088 51.45643287 -20.57421875 49.203125 C-20.83491516 47.31912231 -20.83491516 47.31912231 -20.84887695 45.00048828 C-20.85840897 44.13263702 -20.86794098 43.26478577 -20.87776184 42.37063599 C-20.87685043 41.43106049 -20.87593903 40.49148499 -20.875 39.5234375 C-20.87928513 38.55912811 -20.88357025 37.59481873 -20.88798523 36.60128784 C-20.89373541 34.5585814 -20.89422375 32.51585448 -20.88989258 30.47314453 C-20.88673843 27.34762544 -20.91016315 24.22305781 -20.93554688 21.09765625 C-20.93782037 19.11458453 -20.93852313 17.13151026 -20.9375 15.1484375 C-20.94670975 14.21291046 -20.95591949 13.27738342 -20.96540833 12.31350708 C-20.94025885 8.78400129 -20.86804553 5.9383583 -19.55151367 2.64404297 C-14.48751254 -1.04625641 -6.05979473 0.03066429 0 0 Z " fill="#0793B1" transform="translate(98.57421875,27.796875)"/>
<path d="M0 0 C0.68449219 0.01417969 1.36898437 0.02835938 2.07421875 0.04296875 C7.06624681 0.19124681 7.06624681 0.19124681 8.25 1.375 C8.3383967 3.7506852 8.36530305 6.09708674 8.34765625 8.47265625 C8.3462413 9.18151474 8.34482635 9.89037323 8.34336853 10.62071228 C8.33775443 12.89301712 8.32519963 15.16522475 8.3125 17.4375 C8.30748681 18.97460796 8.30292359 20.51171745 8.29882812 22.04882812 C8.2886297 25.82428667 8.26905732 29.59953404 8.25 33.375 C13.2 33.375 18.15 33.375 23.25 33.375 C23.34087891 30.36052734 23.34087891 30.36052734 23.43359375 27.28515625 C23.49615449 25.34577331 23.55874857 23.40639127 23.62231445 21.46704102 C23.66571223 20.11585853 23.7073837 18.76461947 23.74731445 17.41333008 C23.80489952 15.47463299 23.86914298 13.53613724 23.93359375 11.59765625 C23.97025146 10.42984619 24.00690918 9.26203613 24.04467773 8.05883789 C24.25 5.375 24.25 5.375 25.25 4.375 C28.24018161 4.24832236 31.19694108 4.18979162 34.1875 4.1875 C35.02474609 4.17525391 35.86199219 4.16300781 36.72460938 4.15039062 C37.92633789 4.14749023 37.92633789 4.14749023 39.15234375 4.14453125 C39.88960693 4.14042236 40.62687012 4.13631348 41.38647461 4.13208008 C43.25 4.375 43.25 4.375 45.25 6.375 C45.52415466 8.21430969 45.52415466 8.21430969 45.55639648 10.4699707 C45.57238388 11.31457352 45.58837128 12.15917633 45.60484314 13.02937317 C45.61020584 13.94393784 45.61556854 14.8585025 45.62109375 15.80078125 C45.63463646 17.21039375 45.63463646 17.21039375 45.64845276 18.64848328 C45.66297848 20.63989058 45.67184774 22.63134587 45.67553711 24.62280273 C45.68741363 27.66537423 45.73655907 30.70590497 45.78710938 33.74804688 C45.79657565 35.68228176 45.80380971 37.61652912 45.80859375 39.55078125 C45.82812607 40.45927322 45.84765839 41.3677652 45.86778259 42.30378723 C45.8379997 46.48896259 45.59655067 48.80923798 43.375 52.43603516 C38.85507596 55.24050677 34.92355419 55.1768192 29.69140625 55.22265625 C28.15854225 55.25956825 28.15854225 55.25956825 26.5947113 55.29722595 C24.43730306 55.34310198 22.27960626 55.37680867 20.12182617 55.39916992 C16.82634799 55.43733961 13.53460676 55.52344376 10.24023438 55.61523438 C8.14067602 55.65391796 6.04106416 55.68981792 3.94140625 55.72265625 C2.95999161 55.7494899 1.97857697 55.77632355 0.96742249 55.80397034 C-3.28831619 55.82323484 -6.36029243 55.52347254 -10.37060547 53.99560547 C-14.00233709 49.99570734 -13.59418002 46.33086329 -13.51171875 41.09765625 C-13.51508743 40.09415634 -13.51845612 39.09065643 -13.52192688 38.05674744 C-13.52162808 35.93597282 -13.50638352 33.81515521 -13.47729492 31.69458008 C-13.43767646 28.45194263 -13.45656693 25.21340623 -13.48242188 21.97070312 C-13.47486126 19.90883832 -13.46390629 17.8469826 -13.44921875 15.78515625 C-13.45620285 14.81731705 -13.46318695 13.84947784 -13.47038269 12.85231018 C-13.37408342 8.24912316 -13.24588011 6.04422592 -10.43969727 2.25708008 C-6.95099993 -0.18408973 -4.09715106 -0.22893522 0 0 Z " fill="#059AB8" transform="translate(90.75,137.625)"/>
<path d="M0 0 C0.96969727 -0.01820801 1.93939453 -0.03641602 2.93847656 -0.05517578 C3.75622559 -0.07443115 4.57397461 -0.09368652 5.41650391 -0.11352539 C7.91576028 0.1273567 9.48465818 0.76320081 11.60253906 2.09716797 C12.76709899 4.42628782 12.73881169 5.81311195 12.76025391 8.4074707 C12.77051605 9.2985704 12.7807782 10.1896701 12.79135132 11.10777283 C12.79865265 12.07235916 12.80595398 13.0369455 12.81347656 14.03076172 C12.84153913 16.06136882 12.87020355 18.09196768 12.89941406 20.12255859 C12.9407376 23.33325015 12.97761373 26.54378679 13.00390625 29.75463867 C13.03144248 32.84700524 13.07730839 35.93866537 13.12597656 39.03076172 C13.12922943 39.99332382 13.1324823 40.95588593 13.13583374 41.94761658 C13.15240021 42.84186844 13.16896667 43.7361203 13.18603516 44.6574707 C13.19816544 45.83755959 13.19816544 45.83755959 13.21054077 47.04148865 C13.71215528 49.67200669 14.43112339 50.54994458 16.60253906 52.09716797 C18.68628077 52.54665762 18.68628077 52.54665762 21.01049805 52.48193359 C22.34219276 52.49710022 22.34219276 52.49710022 23.70079041 52.51257324 C24.6570784 52.509552 25.61336639 52.50653076 26.59863281 52.50341797 C27.5837233 52.51425415 28.56881378 52.52509033 29.58375549 52.53625488 C32.73591675 52.57057465 35.88771535 52.58612151 39.04003906 52.59716797 C43.18492036 52.61171696 47.32898919 52.64537034 51.47363281 52.69091797 C52.90502846 52.68638611 52.90502846 52.68638611 54.36534119 52.6817627 C55.25628983 52.69187378 56.14723846 52.70198486 57.06518555 52.71240234 C57.84667465 52.71445679 58.62816376 52.71651123 59.43333435 52.71862793 C62.1918928 53.20001395 63.57521539 54.1912915 65.60253906 56.09716797 C66.20751953 58.86816406 66.20751953 58.86816406 66.34472656 62.24560547 C66.39983398 63.50083008 66.45494141 64.75605469 66.51171875 66.04931641 C66.54570455 67.39851186 66.57593194 68.74780684 66.60253906 70.09716797 C66.6170813 70.75769165 66.63162354 71.41821533 66.64660645 72.09875488 C66.74118046 76.97361565 66.74633836 81.84658603 66.72753906 86.72216797 C66.72565582 87.46097198 66.72377258 88.199776 66.72183228 88.96096802 C66.69489007 97.98709383 66.63782846 107.01441588 66.29003906 116.03466797 C66.2676416 116.83146973 66.24524414 117.62827148 66.22216797 118.44921875 C65.96616989 123.60972305 65.96616989 123.60972305 64.34031677 125.78916931 C62.16828915 127.42402122 60.98698318 127.47985371 58.28637695 127.49780273 C56.98471336 127.5178109 56.98471336 127.5178109 55.65675354 127.53822327 C54.72233932 127.53833908 53.78792511 127.5384549 52.82519531 127.53857422 C51.38085365 127.558386 51.38085365 127.558386 49.90733337 127.57859802 C46.82653935 127.619543 43.74604387 127.6411757 40.66503906 127.65966797 C37.58769628 127.68345628 34.51063477 127.71159424 31.43345642 127.75144958 C29.51816087 127.77579415 27.60271633 127.79066283 25.68727112 127.7950592 C24.38087929 127.81033913 24.38087929 127.81033913 23.0480957 127.82592773 C21.90250938 127.83234032 21.90250938 127.83234032 20.73377991 127.83888245 C18.29136261 128.13487951 16.68717641 128.80286731 14.60253906 130.09716797 C13.03019009 133.24186592 13.43957501 136.60933832 13.43457031 140.06201172 C13.43124191 140.85112442 13.42791351 141.64023712 13.42448425 142.45326233 C13.41941809 144.12353939 13.41707583 145.79382659 13.41723633 147.46411133 C13.41505074 150.02100282 13.3968946 152.57746229 13.37792969 155.13427734 C13.37499554 156.75602066 13.37301089 158.37776602 13.37207031 159.99951172 C13.3648848 160.76520981 13.35769928 161.5309079 13.35029602 162.31980896 C13.36667149 166.1204457 13.4419613 167.85630132 15.60253906 171.09716797 C18.22459733 171.58948528 20.66181485 171.89139892 23.30957031 172.08935547 C24.09440796 172.16026901 24.87924561 172.23118256 25.68786621 172.304245 C27.38051987 172.45717799 29.07367951 172.60458935 30.76724243 172.74710083 C44.23451142 173.8918412 57.59830275 175.32877664 70.91503906 177.65966797 C72.06141846 177.85737793 73.20779785 178.05508789 74.38891602 178.25878906 C80.94842928 179.44893035 87.26693225 181.0214196 93.60253906 183.09716797 C93.27253906 184.41716797 92.94253906 185.73716797 92.60253906 187.09716797 C91.49523437 186.92701172 90.38792969 186.75685547 89.24707031 186.58154297 C79.02072374 185.02190738 68.78488117 183.53026704 58.54003906 182.09716797 C57.3228418 181.92677002 56.10564453 181.75637207 54.8515625 181.58081055 C48.56025682 180.71792046 42.27080316 179.93412985 35.95410156 179.28076172 C34.72957275 179.15378906 33.50504395 179.02681641 32.2434082 178.89599609 C29.91556325 178.66094045 27.58662305 178.43641246 25.2565918 178.22412109 C14.97988821 177.19574096 14.97988821 177.19574096 10.60253906 174.09716797 C7.24102709 169.81346236 7.14937522 165.75093405 7.16894531 160.50732422 C7.16370346 159.68517929 7.15846161 158.86303436 7.15306091 158.01597595 C7.14665505 156.28206508 7.1479591 154.54811068 7.15649414 152.81420898 C7.16500127 150.17140763 7.13622981 147.53077151 7.10449219 144.88818359 C7.10287982 143.19873111 7.10345839 141.50927483 7.10644531 139.81982422 C7.09521133 139.03527359 7.08397736 138.25072296 7.07240295 137.44239807 C7.13824364 132.21921394 8.14383877 129.23484328 11.60253906 125.09716797 C15.33780144 122.60699305 18.34074228 122.74846634 22.67285156 122.68310547 C23.46851532 122.66373932 24.26417908 122.64437317 25.08395386 122.62442017 C27.63170625 122.56468458 30.17950907 122.51837327 32.72753906 122.47216797 C34.42026694 122.43396179 36.11297593 122.39490853 37.80566406 122.35498047 C45.40708266 122.18330651 52.99762985 122.09716797 60.60253906 122.09716797 C60.27253906 101.30716797 59.94253906 80.51716797 59.60253906 59.09716797 C45.01838286 58.92678892 45.01838286 58.92678892 30.43383789 58.79931641 C28.6007232 58.76994235 26.76763096 58.73911579 24.93457031 58.70654297 C23.98851929 58.70541504 23.04246826 58.70428711 22.06774902 58.703125 C17.88011042 58.61222193 15.26759777 58.47707866 11.58178711 56.37158203 C6.92851056 51.02436058 7.33261102 45.75428274 7.40722656 38.98388672 C7.41005646 38.01433548 7.41288635 37.04478424 7.415802 36.04585266 C7.42696915 32.95866391 7.45206754 29.87176858 7.47753906 26.78466797 C7.48757333 24.68766696 7.4966984 22.59066139 7.50488281 20.49365234 C7.52689718 15.36137837 7.56140335 10.22932287 7.60253906 5.09716797 C6.3342627 5.10151855 5.06598633 5.10586914 3.75927734 5.11035156 C-6.67580015 5.13544783 -17.09220313 5.07022996 -27.52246094 4.72216797 C-28.7509375 4.69123047 -29.97941406 4.66029297 -31.24511719 4.62841797 C-32.41171875 4.58974609 -33.57832031 4.55107422 -34.78027344 4.51123047 C-36.33319092 4.46409912 -36.33319092 4.46409912 -37.91748047 4.41601562 C-40.39746094 4.09716797 -40.39746094 4.09716797 -42.39746094 2.09716797 C-38.22088418 1.10856069 -34.13055589 0.88523784 -29.85839844 0.78076172 C-29.13689606 0.75998062 -28.41539368 0.73919952 -27.67202759 0.7177887 C-26.14745524 0.67468271 -24.62282385 0.63362219 -23.09814453 0.59448242 C-20.80063432 0.53539256 -18.50336471 0.47018629 -16.20605469 0.40380859 C-10.80440787 0.25124411 -5.40154441 0.1544851 0 0 Z " fill="#67C2C1" transform="translate(131.3974609375,19.90283203125)"/>
<path d="M0 0 C0.66 0 1.32 0 2 0 C2.73183871 8.01102012 3.16330241 16.02059439 3.3125 24.0625 C3.34214844 24.87114502 3.37179688 25.67979004 3.40234375 26.51293945 C3.44138446 30.40196362 3.28694393 32.50687669 1.29296875 35.93359375 C-3.85730403 40.57498097 -9.2960454 40.33104046 -15.89453125 40.4140625 C-17.15493225 40.44052856 -17.15493225 40.44052856 -18.4407959 40.4675293 C-21.56450648 40.53035567 -24.68853091 40.57670831 -27.8125 40.625 C-34.804375 40.74875 -41.79625 40.8725 -49 41 C-49 61.79 -49 82.58 -49 104 C-35.1636226 103.8420776 -35.1636226 103.8420776 -21.32788086 103.63964844 C-19.58187848 103.62795628 -17.83586512 103.6177657 -16.08984375 103.609375 C-15.19720825 103.58891113 -14.30457275 103.56844727 -13.3848877 103.54736328 C-7.40787482 103.54405054 -3.75234049 104.24853179 1 108 C3.9116283 112.94102392 4.45684589 117.50025311 4.43359375 123.12890625 C4.4388356 123.88163315 4.44407745 124.63436005 4.44947815 125.40989685 C4.45586223 126.99061863 4.45460852 128.57138814 4.44604492 130.15209961 C4.43750906 132.55994481 4.4663839 134.9654338 4.49804688 137.37304688 C4.49965866 138.91666596 4.49908179 140.46028921 4.49609375 142.00390625 C4.50732773 142.71656143 4.51856171 143.42921661 4.53013611 144.16346741 C4.45996928 149.23231426 3.16811232 152.08864195 0 156 C-3.6123897 158.76452303 -6.71276947 159.51184618 -11.1875 160.0625 C-12.43789063 160.22105469 -13.68828125 160.37960938 -14.9765625 160.54296875 C-19.72834941 161.0926762 -24.48471436 161.60266616 -29.24169922 162.10522461 C-38.24286024 163.08434777 -47.20132813 164.38922981 -56.16235352 165.67919922 C-57.96337524 165.93467529 -57.96337524 165.93467529 -59.80078125 166.1953125 C-60.87497314 166.35016113 -61.94916504 166.50500977 -63.0559082 166.66455078 C-65.7380122 166.97014916 -68.30418168 167.06417873 -71 167 C-71 165.35 -71 163.7 -71 162 C-61.50418174 159.75912935 -52.12155321 158.24510013 -42.43701172 157.17840576 C-40.2033039 156.93235629 -37.97076383 156.67732379 -35.73828125 156.42041016 C-29.44908111 155.70044473 -23.15769484 155.00716809 -16.859375 154.37109375 C-16.0147168 154.2841626 -15.17005859 154.19723145 -14.29980469 154.10766602 C-12.81692377 153.95764632 -11.333204 153.81559977 -9.84863281 153.68334961 C-5.99864315 153.34816045 -5.99864315 153.34816045 -3 151 C-2.82460564 148.05903263 -2.76867625 145.21346651 -2.8046875 142.2734375 C-2.80893234 140.97921371 -2.80893234 140.97921371 -2.81326294 139.65884399 C-2.82447667 136.8974228 -2.84958316 134.1363235 -2.875 131.375 C-2.88502827 129.50521301 -2.89415438 127.63542095 -2.90234375 125.765625 C-2.92441988 121.17695891 -2.95895766 116.58853407 -3 112 C-7.69685508 109.58989659 -11.92375281 109.77267212 -17.0625 109.875 C-17.93140869 109.88257324 -18.80031738 109.89014648 -19.69555664 109.89794922 C-22.4639092 109.9223137 -25.23183841 109.95956077 -28 110 C-31.64582287 110.05326072 -35.29143356 110.09322158 -38.9375 110.125 C-39.77095947 110.14159668 -40.60441895 110.15819336 -41.46313477 110.17529297 C-49.2858345 110.24118525 -49.2858345 110.24118525 -53 108 C-55.23696042 104.61477839 -55.24800649 101.71282819 -55.24291992 97.71850586 C-55.24599655 96.44716293 -55.24907318 95.17582001 -55.25224304 93.86595154 C-55.24534539 92.4822471 -55.23807842 91.09854446 -55.23046875 89.71484375 C-55.22927609 88.29285219 -55.22882397 86.87085983 -55.2290802 85.4488678 C-55.22751783 82.47229055 -55.2192465 79.495834 -55.20581055 76.51928711 C-55.18880563 72.70377073 -55.18499682 68.88838671 -55.18575573 65.07283688 C-55.18548385 62.13805376 -55.18000002 59.20329957 -55.17275429 56.26852608 C-55.16957246 54.86150901 -55.16760135 53.45448866 -55.16686058 52.04746819 C-55.16469279 50.08233334 -55.1551495 48.11721079 -55.14526367 46.15209961 C-55.14145187 45.03387314 -55.13764008 43.91564667 -55.13371277 42.76353455 C-55 40 -55 40 -54 37 C-50.85402803 34.90268535 -50.0647153 34.74309759 -46.46850586 34.69702148 C-45.55423325 34.68037949 -44.63996063 34.66373749 -43.69798279 34.64659119 C-42.22132896 34.63396996 -42.22132896 34.63396996 -40.71484375 34.62109375 C-39.70281387 34.60409927 -38.690784 34.5871048 -37.64808655 34.56959534 C-34.41128795 34.51640927 -31.1745024 34.47614146 -27.9375 34.4375 C-24.69699263 34.39360239 -21.4565858 34.34692374 -18.21620178 34.29469299 C-16.198568 34.26268907 -14.18084531 34.23581368 -12.16307068 34.21446228 C-11.25195023 34.20097244 -10.34082977 34.1874826 -9.40209961 34.17358398 C-8.59840439 34.16407211 -7.79470917 34.15456024 -6.96665955 34.14476013 C-4.92229293 34.11962497 -4.92229293 34.11962497 -3 33 C-1.87198852 29.61596555 -1.69028802 26.70655065 -1.46484375 23.14453125 C-1.42186661 22.48289474 -1.37888947 21.82125824 -1.33460999 21.13957214 C-1.19849335 19.0307683 -1.06792653 16.92166266 -0.9375 14.8125 C-0.84606899 13.38083596 -0.75427636 11.94919497 -0.66210938 10.51757812 C-0.43721291 7.01197623 -0.21729171 3.50608242 0 0 Z " fill="#64BDC4" transform="translate(71,38)"/>
<path d="M0 0 C6.17464913 -0.12372902 12.34857456 -0.21440144 18.52416992 -0.2746582 C20.6242327 -0.29978051 22.72420823 -0.33388458 24.82397461 -0.37719727 C27.8451084 -0.43794871 30.86508496 -0.46623263 33.88671875 -0.48828125 C34.82335861 -0.51408768 35.75999847 -0.5398941 36.72502136 -0.56648254 C41.12989919 -0.56837176 43.36600392 -0.4243941 47.1015625 2.07617188 C49.48656479 5.74936985 49.57798364 7.90999497 49.48828125 12.26953125 C49.48120651 12.95053391 49.47413177 13.63153656 49.46684265 14.33317566 C49.43900069 16.49409995 49.37629527 18.65236822 49.3125 20.8125 C49.28740332 22.28316552 49.26459253 23.75387193 49.24414062 25.22460938 C49.18921188 28.81725957 49.10301647 32.40837028 49 36 C46.17845873 37.59330845 44.16195586 38.24988351 40.92578125 38.23046875 C39.80139648 38.22756836 39.80139648 38.22756836 38.65429688 38.22460938 C37.49510742 38.20624023 37.49510742 38.20624023 36.3125 38.1875 C35.1359082 38.1865332 35.1359082 38.1865332 33.93554688 38.18554688 C28.14046848 38.14046848 28.14046848 38.14046848 27 37 C26.92686433 34.46950598 26.90752473 31.96695163 26.9375 29.4375 C26.94201172 28.72658203 26.94652344 28.01566406 26.95117188 27.28320312 C26.96299136 25.52209987 26.98092737 23.76103964 27 22 C26.22809326 22.01571045 25.45618652 22.0314209 24.66088867 22.04760742 C21.16983338 22.10989607 17.67889491 22.14897173 14.1875 22.1875 C12.36508789 22.22520508 12.36508789 22.22520508 10.50585938 22.26367188 C8.76079102 22.27817383 8.76079102 22.27817383 6.98046875 22.29296875 C5.90692139 22.3086792 4.83337402 22.32438965 3.72729492 22.34057617 C1 22 1 22 -0.85107422 20.66455078 C-2.64222452 18.06955232 -2.35906935 15.79331721 -2.3125 12.6875 C-2.30863281 11.57761719 -2.30476562 10.46773437 -2.30078125 9.32421875 C-1.99357374 5.92897728 -1.1253626 3.20248124 0 0 Z " fill="#049AB8" transform="translate(140,81)"/>
<path d="M0 0 C1.10504883 0.00773437 1.10504883 0.00773437 2.23242188 0.015625 C7.65798611 0.09548611 7.65798611 0.09548611 8.8125 1.25 C8.88563567 3.78049402 8.90497527 6.28304837 8.875 8.8125 C8.87048828 9.52341797 8.86597656 10.23433594 8.86132812 10.96679688 C8.84950864 12.72790013 8.83157263 14.48896036 8.8125 16.25 C9.65546631 16.24476318 10.49843262 16.23952637 11.36694336 16.23413086 C14.48477936 16.21712174 17.60259177 16.20456594 20.72045898 16.19506836 C22.07170386 16.19002943 23.42294326 16.18319823 24.77416992 16.17456055 C26.71270434 16.16247581 28.651278 16.15730172 30.58984375 16.15234375 C32.34155884 16.14448853 32.34155884 16.14448853 34.12866211 16.13647461 C36.8125 16.25 36.8125 16.25 37.8125 17.25 C37.91110131 18.65348735 37.94328937 20.06180477 37.9453125 21.46875 C37.94724609 22.74298828 37.94724609 22.74298828 37.94921875 24.04296875 C37.94535156 24.93628906 37.94148438 25.82960938 37.9375 26.75 C37.94330078 28.08998047 37.94330078 28.08998047 37.94921875 29.45703125 C37.94792969 30.30652344 37.94664063 31.15601563 37.9453125 32.03125 C37.94418457 32.81564453 37.94305664 33.60003906 37.94189453 34.40820312 C37.8125 36.25 37.8125 36.25 36.8125 37.25 C35.42224594 37.36356149 34.02636659 37.40951393 32.6315918 37.42700195 C31.74364426 37.43983719 30.85569672 37.45267242 29.94084167 37.46589661 C28.97423111 37.47328354 28.00762054 37.48067047 27.01171875 37.48828125 C26.02379837 37.496353 25.03587799 37.50442474 24.01802063 37.51274109 C21.92226934 37.52660039 19.8264953 37.53731424 17.73071289 37.54516602 C14.52381595 37.56237222 11.31795135 37.60624129 8.11132812 37.65039062 C6.0781326 37.66051759 4.04492829 37.66903368 2.01171875 37.67578125 C0.57091194 37.70204338 0.57091194 37.70204338 -0.89900208 37.72883606 C-7.44220283 37.707505 -7.44220283 37.707505 -10.79174805 35.65136719 C-12.66258395 32.43262624 -12.70496859 30.11914162 -12.71875 26.40234375 C-12.7225769 25.74923721 -12.72640381 25.09613068 -12.73034668 24.42323303 C-12.73306042 23.0473577 -12.72573659 21.67143031 -12.70898438 20.2956543 C-12.68752625 18.19007616 -12.70881538 16.08789562 -12.734375 13.98242188 C-12.7317323 12.64322165 -12.72660849 11.30402353 -12.71875 9.96484375 C-12.71423828 8.74917725 -12.70972656 7.53351074 -12.70507812 6.28100586 C-12.1875 3.25 -12.1875 3.25 -10.39526367 1.35083008 C-7.02411065 -0.33008654 -3.67554237 -0.10454876 0 0 Z " fill="#0296B4" transform="translate(37.1875,101.75)"/>
<path d="M0 0 C0.83724609 -0.01224609 1.67449219 -0.02449219 2.53710938 -0.03710938 C3.73883789 -0.04000977 3.73883789 -0.04000977 4.96484375 -0.04296875 C5.70210693 -0.04707764 6.43937012 -0.05118652 7.19897461 -0.05541992 C9.0625 0.1875 9.0625 0.1875 11.0625 2.1875 C11.33665466 4.02680969 11.33665466 4.02680969 11.36889648 6.2824707 C11.38488388 7.12707352 11.40087128 7.97167633 11.41734314 8.84187317 C11.42538719 10.21372017 11.42538719 10.21372017 11.43359375 11.61328125 C11.44713646 13.02289375 11.44713646 13.02289375 11.46095276 14.46098328 C11.47547848 16.45239058 11.48434774 18.44384587 11.48803711 20.43530273 C11.49991363 23.47787423 11.54905907 26.51840497 11.59960938 29.56054688 C11.60907565 31.49478176 11.61630971 33.42902912 11.62109375 35.36328125 C11.64062607 36.27177322 11.66015839 37.1802652 11.68028259 38.11628723 C11.64866164 42.55975134 11.50008344 44.58638201 8.81787109 48.27099609 C5.96326749 50.25652137 4.82200713 50.79156487 1.41796875 50.67578125 C0.57685547 50.65966797 -0.26425781 50.64355469 -1.13085938 50.62695312 C-2.42733398 50.56411133 -2.42733398 50.56411133 -3.75 50.5 C-4.63365234 50.47744141 -5.51730469 50.45488281 -6.42773438 50.43164062 C-8.5983891 50.37297428 -10.7681669 50.28329979 -12.9375 50.1875 C-12.61080322 49.62337402 -12.28410645 49.05924805 -11.94750977 48.47802734 C-10.82316661 45.92821165 -10.71922242 44.30942005 -10.77734375 41.5390625 C-10.78902588 40.62592285 -10.80070801 39.7127832 -10.81274414 38.77197266 C-10.83328857 37.79534668 -10.85383301 36.8187207 -10.875 35.8125 C-10.96523786 27.46382651 -10.87663709 19.15380226 -10.5 10.8125 C-10.46060303 9.86197754 -10.42120605 8.91145508 -10.38061523 7.93212891 C-10.33880127 7.05991699 -10.2969873 6.18770508 -10.25390625 5.2890625 C-10.21724854 4.51900879 -10.18059082 3.74895508 -10.14282227 2.95556641 C-9.59696291 -1.74492523 -3.64296643 0.00279155 0 0 Z " fill="#45C1CA" transform="translate(124.9375,141.8125)"/>
<path d="M0 0 C0 1.32 0 2.64 0 4 C-0.33 4.33 -0.66 4.66 -1 5 C-1.08241125 6.37141314 -1.0964471 7.74704078 -1.08178711 9.12084961 C-1.0752562 9.99523178 -1.06872528 10.86961395 -1.06199646 11.77049255 C-1.05056107 12.72150345 -1.03912567 13.67251434 -1.02734375 14.65234375 C-1.01469781 16.64518056 -1.00233683 18.63801919 -0.99023438 20.63085938 C-0.96538233 23.78903807 -0.93739839 26.94712372 -0.90405273 30.10522461 C-0.87394567 33.14177058 -0.85610372 36.17819659 -0.83984375 39.21484375 C-0.82638412 40.16383041 -0.8129245 41.11281708 -0.79905701 42.09056091 C-0.79567825 42.96809525 -0.7922995 43.84562958 -0.78881836 44.74975586 C-0.77763222 45.91105263 -0.77763222 45.91105263 -0.76622009 47.09580994 C-1 49 -1 49 -3 51 C-5.87342061 51.19856972 -8.62861988 51.27828946 -11.5 51.25 C-12.67755859 51.26160156 -12.67755859 51.26160156 -13.87890625 51.2734375 C-19.74669213 51.25330787 -19.74669213 51.25330787 -22 49 C-22.26069641 47.11599731 -22.26069641 47.11599731 -22.2746582 44.79736328 C-22.28419022 43.92951202 -22.29372223 43.06166077 -22.30354309 42.16751099 C-22.30263168 41.22793549 -22.30172028 40.28835999 -22.30078125 39.3203125 C-22.30506638 38.35600311 -22.3093515 37.39169373 -22.31376648 36.39816284 C-22.31951666 34.3554564 -22.320005 32.31272948 -22.31567383 30.27001953 C-22.31251968 27.14450044 -22.3359444 24.01993281 -22.36132812 20.89453125 C-22.36360162 18.91145953 -22.36430438 16.92838526 -22.36328125 14.9453125 C-22.372491 14.00978546 -22.38170074 13.07425842 -22.39118958 12.11038208 C-22.34538399 5.68197333 -22.34538399 5.68197333 -20.69604492 2.42529297 C-15.78725537 -1.6998709 -6.05438228 -0.10016441 0 0 Z " fill="#53D1CA" transform="translate(100,28)"/>
<path d="M0 0 C13.23652871 -0.7824549 13.23652871 -0.7824549 19 4 C21.68265488 9.09210201 22.4574028 13.36544217 22.43359375 19.12890625 C22.4388356 19.88163315 22.44407745 20.63436005 22.44947815 21.40989685 C22.45586223 22.99061863 22.45460852 24.57138814 22.44604492 26.15209961 C22.43750906 28.55994481 22.4663839 30.9654338 22.49804688 33.37304688 C22.49965866 34.91666596 22.49908179 36.46028921 22.49609375 38.00390625 C22.50732773 38.71656143 22.51856171 39.42921661 22.53013611 40.16346741 C22.45996928 45.23231426 21.16811232 48.08864195 18 52 C14.3876103 54.76452303 11.28723053 55.51184618 6.8125 56.0625 C4.93691406 56.30033203 4.93691406 56.30033203 3.0234375 56.54296875 C-1.72834941 57.0926762 -6.48471436 57.60266616 -11.24169922 58.10522461 C-20.24286024 59.08434777 -29.20132813 60.38922981 -38.16235352 61.67919922 C-39.96337524 61.93467529 -39.96337524 61.93467529 -41.80078125 62.1953125 C-42.87497314 62.35016113 -43.94916504 62.50500977 -45.0559082 62.66455078 C-47.7380122 62.97014916 -50.30418168 63.06417873 -53 63 C-53 61.35 -53 59.7 -53 58 C-43.50418174 55.75912935 -34.12155321 54.24510013 -24.43701172 53.17840576 C-22.2033039 52.93235629 -19.97076383 52.67732379 -17.73828125 52.42041016 C-11.44908111 51.70044473 -5.15769484 51.00716809 1.140625 50.37109375 C1.9852832 50.2841626 2.82994141 50.19723145 3.70019531 50.10766602 C5.18307623 49.95764632 6.666796 49.81559977 8.15136719 49.68334961 C12.00135685 49.34816045 12.00135685 49.34816045 15 47 C15.17539436 44.05903263 15.23132375 41.21346651 15.1953125 38.2734375 C15.19106766 36.97921371 15.19106766 36.97921371 15.18673706 35.65884399 C15.17552333 32.8974228 15.15041684 30.1363235 15.125 27.375 C15.11497173 25.50521301 15.10584562 23.63542095 15.09765625 21.765625 C15.07558012 17.17695891 15.04104234 12.58853407 15 8 C13.35 7.34 11.7 6.68 10 6 C10 5.34 10 4.68 10 4 C8.68 3.67 7.36 3.34 6 3 C7.65 2.67 9.3 2.34 11 2 C5.555 1.505 5.555 1.505 0 1 C0 0.67 0 0.34 0 0 Z " fill="#2FA9CB" transform="translate(53,142)"/>
<path d="M0 0 C0.96969727 -0.01820801 1.93939453 -0.03641602 2.93847656 -0.05517578 C3.75622559 -0.07443115 4.57397461 -0.09368652 5.41650391 -0.11352539 C7.91576028 0.1273567 9.48465818 0.76320081 11.60253906 2.09716797 C12.76709899 4.42628782 12.73881169 5.81311195 12.76025391 8.4074707 C12.77051605 9.2985704 12.7807782 10.1896701 12.79135132 11.10777283 C12.79865265 12.07235916 12.80595398 13.0369455 12.81347656 14.03076172 C12.84153913 16.06136882 12.87020355 18.09196768 12.89941406 20.12255859 C12.9407376 23.33325015 12.97761373 26.54378679 13.00390625 29.75463867 C13.03144248 32.84700524 13.07730839 35.93866537 13.12597656 39.03076172 C13.12922943 39.99332382 13.1324823 40.95588593 13.13583374 41.94761658 C13.15240021 42.84186844 13.16896667 43.7361203 13.18603516 44.6574707 C13.19816544 45.83755959 13.19816544 45.83755959 13.21054077 47.04148865 C13.71215528 49.67200669 14.43112339 50.54994458 16.60253906 52.09716797 C18.68628077 52.54665762 18.68628077 52.54665762 21.01049805 52.48193359 C22.34219276 52.49710022 22.34219276 52.49710022 23.70079041 52.51257324 C24.6570784 52.509552 25.61336639 52.50653076 26.59863281 52.50341797 C27.5837233 52.51425415 28.56881378 52.52509033 29.58375549 52.53625488 C32.73591675 52.57057465 35.88771535 52.58612151 39.04003906 52.59716797 C43.18492036 52.61171696 47.32898919 52.64537034 51.47363281 52.69091797 C52.90502846 52.68638611 52.90502846 52.68638611 54.36534119 52.6817627 C55.25628983 52.69187378 56.14723846 52.70198486 57.06518555 52.71240234 C57.84667465 52.71445679 58.62816376 52.71651123 59.43333435 52.71862793 C62.19633234 53.20078868 63.5835952 54.17390924 65.60253906 56.09716797 C65.99316406 59.01513672 65.99316406 59.01513672 65.85253906 62.28466797 C65.81644531 63.37134766 65.78035156 64.45802734 65.74316406 65.57763672 C65.69675781 66.40908203 65.65035156 67.24052734 65.60253906 68.09716797 C65.27253906 68.09716797 64.94253906 68.09716797 64.60253906 68.09716797 C64.27253906 64.13716797 63.94253906 60.17716797 63.60253906 56.09716797 C58.5195022 55.98395941 58.5195022 55.98395941 53.60253906 57.09716797 C47.92406252 57.37562833 42.24569913 57.4106287 36.56103516 57.44726562 C34.67549304 57.46383682 32.79001403 57.49114227 30.90478516 57.52929688 C28.18131042 57.58409995 25.45930358 57.60594183 22.73535156 57.62060547 C21.89561798 57.64327484 21.0558844 57.66594421 20.19070435 57.68930054 C15.8454757 57.67363976 14.13331457 57.5109506 10.59423828 54.75195312 C8.01679632 51.31641698 7.47704777 48.89362841 7.48901367 44.7175293 C7.4890892 43.8368428 7.48916473 42.95615631 7.48924255 42.04878235 C7.49440384 41.10181992 7.49956512 40.15485748 7.50488281 39.17919922 C7.50629776 38.20681808 7.50771271 37.23443695 7.50917053 36.23258972 C7.5147709 33.12491793 7.52732344 30.01731801 7.54003906 26.90966797 C7.54505402 24.80354922 7.54961693 22.69742934 7.55371094 20.59130859 C7.56474044 15.42656733 7.58200531 10.26187984 7.60253906 5.09716797 C6.3342627 5.10151855 5.06598633 5.10586914 3.75927734 5.11035156 C-6.67580015 5.13544783 -17.09220313 5.07022996 -27.52246094 4.72216797 C-28.7509375 4.69123047 -29.97941406 4.66029297 -31.24511719 4.62841797 C-32.41171875 4.58974609 -33.57832031 4.55107422 -34.78027344 4.51123047 C-36.33319092 4.46409912 -36.33319092 4.46409912 -37.91748047 4.41601562 C-40.39746094 4.09716797 -40.39746094 4.09716797 -42.39746094 2.09716797 C-38.22088418 1.10856069 -34.13055589 0.88523784 -29.85839844 0.78076172 C-29.13689606 0.75998062 -28.41539368 0.73919952 -27.67202759 0.7177887 C-26.14745524 0.67468271 -24.62282385 0.63362219 -23.09814453 0.59448242 C-20.80063432 0.53539256 -18.50336471 0.47018629 -16.20605469 0.40380859 C-10.80440787 0.25124411 -5.40154441 0.1544851 0 0 Z " fill="#68C7C6" transform="translate(131.3974609375,19.90283203125)"/>
<path d="M0 0 C0.80037689 -0.00014603 1.60075378 -0.00029205 2.42538452 -0.0004425 C5.06584399 0.00025309 7.70623257 0.00802899 10.34667969 0.01586914 C12.17942262 0.01773457 14.01216606 0.01915789 15.84490967 0.02015686 C20.6650531 0.02397217 25.48516634 0.03379406 30.30529785 0.04486084 C35.22533764 0.05509614 40.14538232 0.05965902 45.06542969 0.06469727 C54.71648461 0.0754172 64.36751714 0.0924818 74.01855469 0.11352539 C74.01855469 1.43352539 74.01855469 2.75352539 74.01855469 4.11352539 C73.02855469 3.78352539 72.03855469 3.45352539 71.01855469 3.11352539 C68.56615725 3.00756115 66.14175296 2.95630191 63.68896484 2.95239258 C62.94553329 2.94742767 62.20210175 2.94246277 61.43614197 2.93734741 C58.97662429 2.92274184 56.51717111 2.91592669 54.05761719 2.91040039 C52.34752399 2.90464787 50.63743081 2.89889015 48.92733765 2.89312744 C45.34120381 2.8826222 41.75509237 2.87677633 38.16894531 2.87329102 C33.57664545 2.86780549 28.98464197 2.84377431 24.39243507 2.81531906 C20.85966124 2.79668449 17.3269587 2.79148666 13.79413986 2.78995514 C12.10127516 2.78693023 10.40841167 2.77890711 8.71559525 2.76576996 C6.34581262 2.74869109 3.97675301 2.75059386 1.60693359 2.75708008 C0.90961624 2.7478653 0.21229889 2.73865051 -0.50614929 2.72915649 C-4.81818519 2.76607741 -7.56371883 3.44665277 -10.98144531 6.11352539 C-11.82860764 8.32932632 -11.82860764 8.32932632 -11.85644531 10.73852539 C-11.91574219 11.53516602 -11.97503906 12.33180664 -12.03613281 13.15258789 C-12.20606305 15.11794749 -12.20606305 15.11794749 -10.98144531 16.11352539 C-10.65144531 15.12352539 -10.32144531 14.13352539 -9.98144531 13.11352539 C-9.32144531 13.11352539 -8.66144531 13.11352539 -7.98144531 13.11352539 C-8.31144531 14.76352539 -8.64144531 16.41352539 -8.98144531 18.11352539 C-7.0237825 18.19434633 -5.06517804 18.25263317 -3.10644531 18.30102539 C-2.01589844 18.33583008 -0.92535156 18.37063477 0.19824219 18.40649414 C1.59429687 18.26147461 1.59429687 18.26147461 3.01855469 18.11352539 C3.67855469 17.12352539 4.33855469 16.13352539 5.01855469 15.11352539 C5.01855469 15.77352539 5.01855469 16.43352539 5.01855469 17.11352539 C6.00855469 17.11352539 6.99855469 17.11352539 8.01855469 17.11352539 C8.01855469 17.77352539 8.01855469 18.43352539 8.01855469 19.11352539 C34.41855469 19.44352539 60.81855469 19.77352539 88.01855469 20.11352539 C88.67855469 18.79352539 89.33855469 17.47352539 90.01855469 16.11352539 C90.67855469 16.11352539 91.33855469 16.11352539 92.01855469 16.11352539 C92.67855469 15.45352539 93.33855469 14.79352539 94.01855469 14.11352539 C94.51355469 16.09352539 94.51355469 16.09352539 95.01855469 18.11352539 C92.04107904 21.2243151 89.82658701 22.39355326 85.60984802 22.58108521 C83.82081696 22.58656913 82.03163507 22.56995217 80.24291992 22.53588867 C79.26350433 22.53326019 78.28408875 22.53063171 77.2749939 22.52792358 C74.0419836 22.51495555 70.80992383 22.47410133 67.57714844 22.43383789 C65.3294426 22.42129508 63.08172438 22.41081555 60.83399963 22.40231323 C54.91866779 22.37571298 49.00374927 22.32684886 43.08862305 22.27160645 C33.61712752 22.18535148 24.14551972 22.12595629 14.67375374 22.07952499 C11.36319331 22.0590607 8.05296824 22.02496348 4.74253845 21.98953247 C2.716627 21.97587774 0.69071253 21.96266024 -1.33520508 21.94995117 C-2.25739334 21.93647644 -3.1795816 21.92300171 -4.12971497 21.90911865 C-4.97781738 21.90608734 -5.8259198 21.90305603 -6.69972229 21.89993286 C-7.80166349 21.88937457 -7.80166349 21.88937457 -8.92586613 21.87860298 C-11.29838475 22.1497469 -12.91915214 22.93898628 -14.98144531 24.11352539 C-15.06878044 21.03037154 -15.12194659 17.94753712 -15.16894531 14.86352539 C-15.19408203 13.99083008 -15.21921875 13.11813477 -15.24511719 12.21899414 C-15.31868279 5.79426482 -15.31868279 5.79426482 -13.71972656 2.56665039 C-9.81332369 -0.69892684 -4.84880815 -0.02317023 0 0 Z " fill="#76DAC7" transform="translate(39.9814453125,80.886474609375)"/>
<path d="M0 0 C5.75 -0.125 5.75 -0.125 8 1 C8.59765625 3.65234375 8.59765625 3.65234375 9.0625 6.9375 C9.58146009 11.10862576 9.58146009 11.10862576 11 15 C11.09854641 17.30821734 11.13078717 19.61936835 11.1328125 21.9296875 C11.13417709 22.62828888 11.13554169 23.32689026 11.13694763 24.04666138 C11.13897747 26.32282213 11.13265667 28.59885251 11.125 30.875 C11.12378143 31.64344238 11.12256287 32.41188477 11.12130737 33.20361328 C11.1039525 42.47572949 11.02041931 51.7373001 10.5625 61 C10.50376709 62.2063208 10.50376709 62.2063208 10.44384766 63.43701172 C10.13562551 68.72874897 10.13562551 68.72874897 9 71 C2.73 71 -3.54 71 -10 71 C-9.67 69.68 -9.34 68.36 -9 67 C-4.38 67 0.24 67 5 67 C4.67 46.21 4.34 25.42 4 4 C-10.85 3.67 -25.7 3.34 -41 3 C-41 2.67 -41 2.34 -41 2 C-27.47 1.67 -13.94 1.34 0 1 C0 0.67 0 0.34 0 0 Z " fill="#46BECA" transform="translate(187,75)"/>
<path d="M0 0 C0.66 0.33 1.32 0.66 2 1 C2 18.49 2 35.98 2 54 C11.7066944 53.96070507 11.7066944 53.96070507 21.41333008 53.90991211 C42.30131446 53.86754297 42.30131446 53.86754297 47 57 C44.21295221 58.56030083 42.14150399 59.2607128 38.95336914 59.35058594 C38.16897964 59.37691101 37.38459015 59.40323608 36.57643127 59.43035889 C35.31850014 59.45709686 35.31850014 59.45709686 34.03515625 59.484375 C33.16483261 59.5084845 32.29450897 59.53259399 31.39781189 59.55743408 C29.55967771 59.60566324 27.72141151 59.64906939 25.88305664 59.68798828 C23.07572874 59.74970916 20.26959427 59.83282018 17.46289062 59.91796875 C15.67451072 59.96223137 13.8860993 60.00524172 12.09765625 60.046875 C11.26105972 60.07279724 10.4244632 60.09871948 9.56251526 60.12542725 C1.72974784 60.26184874 1.72974784 60.26184874 -2 58 C-4.3178868 54.86480351 -4.23420781 51.95236507 -4.1953125 48.140625 C-4.18886719 47.02558594 -4.18242187 45.91054687 -4.17578125 44.76171875 C-4.15902344 43.60285156 -4.14226563 42.44398438 -4.125 41.25 C-4.11597656 40.07566406 -4.10695313 38.90132812 -4.09765625 37.69140625 C-4.07410063 34.79406464 -4.04120652 31.89713559 -4 29 C-3.34 29 -2.68 29 -2 29 C-2.020625 27.72125 -2.04125 26.4425 -2.0625 25.125 C-2.125 21.25 -2.125 21.25 -1 19 C-0.84932786 17.5534758 -0.75138964 16.1012066 -0.68359375 14.6484375 C-0.64169922 13.79765625 -0.59980469 12.946875 -0.55664062 12.0703125 C-0.51732422 11.18085937 -0.47800781 10.29140625 -0.4375 9.375 C-0.39431641 8.4778125 -0.35113281 7.580625 -0.30664062 6.65625 C-0.20043139 4.43765717 -0.09838806 2.2189512 0 0 Z " fill="#4FC0C9" transform="translate(20,88)"/>
<path d="M0 0 C0.96969727 -0.01820801 1.93939453 -0.03641602 2.93847656 -0.05517578 C3.75622559 -0.07443115 4.57397461 -0.09368652 5.41650391 -0.11352539 C7.91576028 0.1273567 9.48465818 0.76320081 11.60253906 2.09716797 C12.76758896 4.42726776 12.72347486 5.76963874 12.71606445 8.36328125 C12.71598892 9.24404327 12.71591339 10.1248053 12.71583557 11.03225708 C12.71067429 11.9843808 12.705513 12.93650452 12.70019531 13.91748047 C12.69878036 14.89127655 12.69736542 15.86507263 12.69590759 16.86837769 C12.69029879 19.9863387 12.6777448 23.10422857 12.66503906 26.22216797 C12.6600252 28.33284402 12.65546209 30.44352119 12.65136719 32.55419922 C12.64032651 37.73521318 12.6235798 42.91618549 12.60253906 48.09716797 C12.27253906 48.09716797 11.94253906 48.09716797 11.60253906 48.09716797 C11.57748291 46.89068604 11.55242676 45.6842041 11.52661133 44.44116211 C11.43271384 39.98141136 11.33245073 35.52182284 11.23022461 31.06225586 C11.18680865 29.12902612 11.14513864 27.19575638 11.10522461 25.26245117 C11.04768275 22.48978595 10.98394286 19.7173234 10.91894531 16.94482422 C10.90223282 16.07503433 10.88552032 15.20524445 10.86830139 14.30909729 C11.15227693 10.38600831 11.15227693 10.38600831 9.60253906 7.09716797 C9.27253906 20.95716797 8.94253906 34.81716797 8.60253906 49.09716797 C8.27253906 49.09716797 7.94253906 49.09716797 7.60253906 49.09716797 C7.60253906 34.57716797 7.60253906 20.05716797 7.60253906 5.09716797 C1.00253906 5.09716797 -5.59746094 5.09716797 -12.39746094 5.09716797 C-17.44393584 5.00362356 -22.47928425 4.89046085 -27.52246094 4.72216797 C-28.7509375 4.69123047 -29.97941406 4.66029297 -31.24511719 4.62841797 C-32.41171875 4.58974609 -33.57832031 4.55107422 -34.78027344 4.51123047 C-36.33319092 4.46409912 -36.33319092 4.46409912 -37.91748047 4.41601562 C-40.39746094 4.09716797 -40.39746094 4.09716797 -42.39746094 2.09716797 C-38.22088418 1.10856069 -34.13055589 0.88523784 -29.85839844 0.78076172 C-29.13689606 0.75998062 -28.41539368 0.73919952 -27.67202759 0.7177887 C-26.14745524 0.67468271 -24.62282385 0.63362219 -23.09814453 0.59448242 C-20.80063432 0.53539256 -18.50336471 0.47018629 -16.20605469 0.40380859 C-10.80440787 0.25124411 -5.40154441 0.1544851 0 0 Z " fill="#6FC0BF" transform="translate(131.3974609375,19.90283203125)"/>
<path d="M0 0 C2.24993359 -0.02707139 4.49996095 -0.04642829 6.75 -0.0625 C8.00296875 -0.07410156 9.2559375 -0.08570313 10.546875 -0.09765625 C14 0 14 0 15.984375 0.49731445 C18.6126016 1.1527794 21.19413809 1.12926495 23.89086914 1.18945312 C36.20586948 1.50551647 51.84141291 2.42070645 63 8 C62.67 9.32 62.34 10.64 62 12 C60.75347656 11.80664062 59.50695312 11.61328125 58.22265625 11.4140625 C56.50271688 11.15030563 54.7826555 10.88734364 53.0625 10.625 C52.16329834 10.48779541 51.26409668 10.35059082 50.33764648 10.20922852 C43.73113069 9.21828021 37.12050753 8.37909522 30.47094727 7.73486328 C26.64270158 7.33098978 23.51901539 6.53103873 20 5 C13.10321095 3.19930252 6.09223274 2.51236662 -1 2 C-0.67 1.34 -0.34 0.68 0 0 Z " fill="#4FC3C9" transform="translate(162,195)"/>
<path d="M0 0 C0 0.33 0 0.66 0 1 C-3.3 1 -6.6 1 -10 1 C-10 1.99 -10 2.98 -10 4 C-5.71 4 -1.42 4 3 4 C3 4.33 3 4.66 3 5 C1.66388672 5.14695313 1.66388672 5.14695313 0.30078125 5.296875 C-10.86435907 6.55651694 -21.9862424 8.08252691 -33.1081543 9.67871094 C-34.31511963 9.84918945 -35.52208496 10.01966797 -36.765625 10.1953125 C-37.84618164 10.35016113 -38.92673828 10.50500977 -40.04003906 10.66455078 C-42.72749637 10.96911745 -45.29900579 11.0643689 -48 11 C-48 9.35 -48 7.7 -48 6 C-39.49622383 3.92195418 -30.98306584 2.47349193 -22.3125 1.3125 C-21.36366943 1.18125732 -20.41483887 1.05001465 -19.43725586 0.91479492 C-12.92717619 0.07563794 -6.56048234 -0.15071486 0 0 Z " fill="#55C2C8" transform="translate(48,194)"/>
<path d="M0 0 C0.99 0.495 0.99 0.495 2 1 C2.10806144 3.91765891 2.18732877 6.83131125 2.25 9.75 C2.28351563 10.575 2.31703125 11.4 2.3515625 12.25 C2.37089844 13.44882813 2.37089844 13.44882813 2.390625 14.671875 C2.4220459 15.77160645 2.4220459 15.77160645 2.45410156 16.89355469 C1.77468129 20.04518809 0.56521192 21.05313032 -2 23 C-4.94180823 23.37397194 -7.50280331 23.50696673 -10.44042969 23.45410156 C-11.7141468 23.45497772 -11.7141468 23.45497772 -13.01359558 23.45587158 C-15.81677306 23.45308765 -18.61888358 23.42198145 -21.421875 23.390625 C-23.36671365 23.3831637 -25.31155983 23.37747024 -27.25640869 23.37347412 C-32.3726684 23.35820907 -37.48847314 23.31891961 -42.60455322 23.2746582 C-47.82614996 23.23372437 -53.04782028 23.21546713 -58.26953125 23.1953125 C-68.51322061 23.15242633 -78.75657246 23.08416432 -89 23 C-89 22.67 -89 22.34 -89 22 C-87.94177536 21.98382629 -86.88355072 21.96765259 -85.79325867 21.95098877 C-75.83093832 21.7961633 -65.86916757 21.62071136 -55.90756512 21.42494583 C-50.78589953 21.3249611 -45.66431761 21.23230335 -40.54223633 21.15625 C-35.60109559 21.08261592 -30.66065001 20.98991909 -25.72010231 20.88387299 C-23.83313986 20.84674622 -21.94602828 20.81654451 -20.05884361 20.79331207 C-17.41960512 20.75964976 -14.78196529 20.70160659 -12.14331055 20.63769531 C-11.3592836 20.63337494 -10.57525665 20.62905457 -9.76747131 20.62460327 C-5.39130144 20.50844981 -5.39130144 20.50844981 -1.99104309 17.96014404 C-1.66399887 17.31329651 -1.33695465 16.66644897 -1 16 C-1.66 16 -2.32 16 -3 16 C-3 15.34 -3 14.68 -3 14 C-2.34 13.67 -1.68 13.34 -1 13 C-1.09539062 12.22914063 -1.19078125 11.45828125 -1.2890625 10.6640625 C-1.39992188 9.66117188 -1.51078125 8.65828125 -1.625 7.625 C-1.74101562 6.62726563 -1.85703125 5.62953125 -1.9765625 4.6015625 C-1.98816406 3.31378906 -1.98816406 3.31378906 -2 2 C-1.34 1.34 -0.68 0.68 0 0 Z " fill="#55A6BA" transform="translate(187,116)"/>
<path d="M0 0 C0.99 1.98 0.99 1.98 2 4 C-1.52117419 7.51185179 -4.04778142 8.45984499 -9.01631165 8.49768066 C-9.79314804 8.48329956 -10.56998444 8.46891846 -11.37036133 8.45410156 C-12.61503677 8.45497772 -12.61503677 8.45497772 -13.88485718 8.45587158 C-16.61767945 8.4530929 -19.34940038 8.42201173 -22.08203125 8.390625 C-23.98060002 8.38316183 -25.8791765 8.37746926 -27.77775574 8.37347412 C-32.76741924 8.35822379 -37.75661476 8.31894706 -42.74609375 8.2746582 C-47.8404304 8.2336926 -52.93484288 8.21546034 -58.02929688 8.1953125 C-68.01973652 8.1524523 -78.0098293 8.08420815 -88 8 C-87.67 7.34 -87.34 6.68 -87 6 C-59.94 6 -32.88 6 -5 6 C-4.34 4.68 -3.68 3.36 -3 2 C-2.34 2 -1.68 2 -1 2 C-0.67 1.34 -0.34 0.68 0 0 Z " fill="#61C0B9" transform="translate(133,95)"/>
<path d="M0 0 C5.75 -0.125 5.75 -0.125 8 1 C8.6328125 3.51171875 8.6328125 3.51171875 9.125 6.6875 C9.37636719 8.24017578 9.37636719 8.24017578 9.6328125 9.82421875 C9.99028975 12.91601663 10.06525778 15.89093277 10 19 C9.01 19 8.02 19 7 19 C6.67 34.84 6.34 50.68 6 67 C5.67 67 5.34 67 5 67 C4.67 46.21 4.34 25.42 4 4 C-10.85 3.67 -25.7 3.34 -41 3 C-41 2.67 -41 2.34 -41 2 C-27.47 1.67 -13.94 1.34 0 1 C0 0.67 0 0.34 0 0 Z " fill="#56B0BD" transform="translate(187,75)"/>
<path d="M0 0 C1.60875 0.2784375 1.60875 0.2784375 3.25 0.5625 C6.6679276 0.96125822 7.86862688 0.8062707 11 0 C12.67651571 -0.09073352 14.35618847 -0.13064229 16.03515625 -0.1328125 C17.49791992 -0.13474609 17.49791992 -0.13474609 18.99023438 -0.13671875 C20.00408203 -0.13285156 21.01792969 -0.12898437 22.0625 -0.125 C23.04927734 -0.12886719 24.03605469 -0.13273438 25.05273438 -0.13671875 C43.33083169 -0.11277887 43.33083169 -0.11277887 48 3 C42.37543587 3.79401867 36.90743125 4.17132234 31.23046875 4.203125 C30.02624016 4.21167511 30.02624016 4.21167511 28.79768372 4.22039795 C27.11619356 4.22977385 25.43468564 4.2363521 23.75317383 4.24023438 C21.17692967 4.25004023 18.60145158 4.28117118 16.02539062 4.3125 C14.38542136 4.31902199 12.74544646 4.3242756 11.10546875 4.328125 C9.95234444 4.3466452 9.95234444 4.3466452 8.77592468 4.36553955 C3.47242767 4.34327024 3.47242767 4.34327024 0.9934082 2.54199219 C0 1 0 1 0 0 Z " fill="#49C0CE" transform="translate(19,142)"/>
<path d="M0 0 C1.10504883 0.00773437 1.10504883 0.00773437 2.23242188 0.015625 C7.65798611 0.09548611 7.65798611 0.09548611 8.8125 1.25 C8.88563567 3.78049402 8.90497527 6.28304837 8.875 8.8125 C8.87048828 9.52341797 8.86597656 10.23433594 8.86132812 10.96679688 C8.84950864 12.72790013 8.83157263 14.48896036 8.8125 16.25 C8.1525 16.25 7.4925 16.25 6.8125 16.25 C6.4825 11.63 6.1525 7.01 5.8125 2.25 C-0.14401822 2.1255195 -0.14401822 2.1255195 -5.1875 4.25 C-8.74225575 7.94910088 -9.69637494 10.32540324 -9.796875 15.42578125 C-9.82910156 16.58271484 -9.86132812 17.73964844 -9.89453125 18.93164062 C-9.90871094 20.12982422 -9.92289063 21.32800781 -9.9375 22.5625 C-9.96714844 23.78001953 -9.99679688 24.99753906 -10.02734375 26.25195312 C-10.09791823 29.25136833 -10.15067864 32.2500117 -10.1875 35.25 C-13.5738269 31.8636731 -12.52522141 27.12977293 -12.55859375 22.55664062 C-12.55843262 21.86030518 -12.55827148 21.16396973 -12.55810547 20.4465332 C-12.56247721 18.32356467 -12.59878438 16.20267832 -12.63671875 14.08007812 C-12.64258733 12.73177795 -12.64655645 11.38346789 -12.6484375 10.03515625 C-12.65665527 8.80676025 -12.66487305 7.57836426 -12.67333984 6.31274414 C-12.1875 3.25 -12.1875 3.25 -10.3996582 1.34643555 C-7.02478816 -0.32628726 -3.67602289 -0.10456243 0 0 Z " fill="#1D88A2" transform="translate(37.1875,101.75)"/>
<path d="M0 0 C0.83724609 -0.01224609 1.67449219 -0.02449219 2.53710938 -0.03710938 C3.73883789 -0.04000977 3.73883789 -0.04000977 4.96484375 -0.04296875 C5.70210693 -0.04707764 6.43937012 -0.05118652 7.19897461 -0.05541992 C9.0625 0.1875 9.0625 0.1875 11.0625 2.1875 C11.32319641 4.03353882 11.32319641 4.03353882 11.3371582 6.29833984 C11.35145622 7.5700856 11.35145622 7.5700856 11.36604309 8.86752319 C11.36513168 9.78522491 11.36422028 10.70292664 11.36328125 11.6484375 C11.36756638 12.59055084 11.3718515 13.53266418 11.37626648 14.50332642 C11.38201641 16.49895422 11.38250518 18.49460299 11.37817383 20.49023438 C11.3750198 23.54333358 11.39844414 26.59545862 11.42382812 29.6484375 C11.42610164 31.58593628 11.42680437 33.52343766 11.42578125 35.4609375 C11.434991 36.37459076 11.44420074 37.28824402 11.45368958 38.22958374 C11.40764518 44.54351035 11.40764518 44.54351035 9.66479492 47.79541016 C8.0625 49.1875 8.0625 49.1875 6.0625 49.1875 C6.38847168 48.39907715 6.71444336 47.6106543 7.05029297 46.79833984 C8.32843418 42.23883465 8.31256042 38.1223301 8.2578125 33.4140625 C8.25356766 32.0284462 8.25356766 32.0284462 8.24923706 30.61483765 C8.23809179 27.68059024 8.21299765 24.7466543 8.1875 21.8125 C8.17746289 19.81641068 8.16833832 17.82031654 8.16015625 15.82421875 C8.13817097 10.94519351 8.10368017 6.06639946 8.0625 1.1875 C0.1425 1.6825 0.1425 1.6825 -7.9375 2.1875 C-8.2675 10.1075 -8.5975 18.0275 -8.9375 26.1875 C-9.5975 26.1875 -10.2575 26.1875 -10.9375 26.1875 C-10.79936975 22.04137186 -10.65071141 17.89568838 -10.5 13.75 C-10.46068359 12.56599609 -10.42136719 11.38199219 -10.38085938 10.16210938 C-10.33896484 9.03740234 -10.29707031 7.91269531 -10.25390625 6.75390625 C-10.21724854 5.71177979 -10.18059082 4.66965332 -10.14282227 3.59594727 C-9.68122083 -1.81867594 -4.28966741 0.0032871 0 0 Z " fill="#58B0BB" transform="translate(124.9375,141.8125)"/>
<path d="M0 0 C0.66 0.33 1.32 0.66 2 1 C1.34 2.32 0.68 3.64 0 5 C0.66 5 1.32 5 2 5 C2.02690104 7.79173055 2.04679053 10.58320348 2.0625 13.375 C2.07087891 14.1690625 2.07925781 14.963125 2.08789062 15.78125 C2.11328125 21.7734375 2.11328125 21.7734375 1 24 C-5.27 24 -11.54 24 -18 24 C-17.67 22.68 -17.34 21.36 -17 20 C-12.05 20 -7.1 20 -2 20 C-2 13.73 -2 7.46 -2 1 C-1.34 0.67 -0.68 0.34 0 0 Z " fill="#54B7C3" transform="translate(195,122)"/>
<path d="M0 0 C25.08 0 50.16 0 76 0 C76 1.32 76 2.64 76 4 C75.01 3.67 74.02 3.34 73 3 C71.33709552 2.88965541 69.67030463 2.83386416 68.00390625 2.81054688 C66.98433838 2.79382935 65.96477051 2.77711182 64.91430664 2.7598877 C63.80821045 2.74631226 62.70211426 2.73273682 61.5625 2.71875 C59.83858032 2.69113586 59.83858032 2.69113586 58.07983398 2.66296387 C54.38660874 2.60416091 50.69333367 2.55151026 47 2.5 C31.31175187 2.27606156 15.66087185 1.99326958 0 1 C0 0.67 0 0.34 0 0 Z " fill="#6ABDBB" transform="translate(38,81)"/>
<path d="M0 0 C0 0.66 0 1.32 0 2 C-1.98 2.33 -3.96 2.66 -6 3 C-6.33 3.99 -6.66 4.98 -7 6 C-15.15002924 7.06162705 -22.83382806 6.84388104 -31 6 C-31 5.01 -31 4.02 -31 3 C-27.7 3 -24.4 3 -21 3 C-21 2.34 -21 1.68 -21 1 C-13.96094956 0.06145994 -7.09727428 -0.10808032 0 0 Z " fill="#4AA8C0" transform="translate(69,192)"/>
<path d="M0 0 C2.0417903 3.37411511 2.22471081 5.91357137 2.16015625 9.82421875 C2.14919922 10.93474609 2.13824219 12.04527344 2.12695312 13.18945312 C2.10568359 14.34380859 2.08441406 15.49816406 2.0625 16.6875 C2.02823862 18.98301259 1.99805924 21.27859104 1.97265625 23.57421875 C1.95468994 24.59088623 1.93672363 25.60755371 1.91821289 26.6550293 C1.73169027 28.95903355 1.73169027 28.95903355 3 30 C3.33 23.73 3.66 17.46 4 11 C4.66 10.67 5.32 10.34 6 10 C6.10845027 13.04263267 6.18752063 16.08136204 6.25 19.125 C6.30027344 20.40890625 6.30027344 20.40890625 6.3515625 21.71875 C6.43810861 27.34424695 5.80728724 30.56163236 2 35 C-0.98893229 37.18702362 -2.27944454 38 -6 38 C-6 37.34 -6 36.68 -6 36 C-3.03 35.505 -3.03 35.505 0 35 C0 34.34 0 33.68 0 33 C-0.99 32.67 -1.98 32.34 -3 32 C-2.34 31.34 -1.68 30.68 -1 30 C-0.62677573 26.89243985 -0.62677573 26.89243985 -0.5859375 23.2421875 C-0.56657135 22.57913605 -0.5472052 21.91608459 -0.5272522 21.23294067 C-0.46744046 19.11375823 -0.42106612 16.9945215 -0.375 14.875 C-0.33682155 13.43877831 -0.29776989 12.00257955 -0.2578125 10.56640625 C-0.16173875 7.04448064 -0.07771358 3.52238392 0 0 Z " fill="#4398B3" transform="translate(69,159)"/>
<path d="M0 0 C0.66 0 1.32 0 2 0 C2.73183871 8.01102012 3.16330241 16.02059439 3.3125 24.0625 C3.34214844 24.87114502 3.37179688 25.67979004 3.40234375 26.51293945 C3.44388603 30.65115594 3.32753571 32.50394496 0.98046875 36.05859375 C0.32691406 36.69925781 -0.32664062 37.33992188 -1 38 C-1.66 37.67 -2.32 37.34 -3 37 C-2.67 36.34 -2.34 35.68 -2 35 C-3.485 35.495 -3.485 35.495 -5 36 C-5 35.34 -5 34.68 -5 34 C-4.01 33.505 -4.01 33.505 -3 33 C-1.87198852 29.61596555 -1.69028802 26.70655065 -1.46484375 23.14453125 C-1.42186661 22.48289474 -1.37888947 21.82125824 -1.33460999 21.13957214 C-1.19849335 19.0307683 -1.06792653 16.92166266 -0.9375 14.8125 C-0.84606899 13.38083596 -0.75427636 11.94919497 -0.66210938 10.51757812 C-0.43721291 7.01197623 -0.21729171 3.50608242 0 0 Z " fill="#519FB3" transform="translate(71,38)"/>
<path d="M0 0 C9.49209929 -0.30681533 18.72135467 0.86776311 28.125 2 C29.7655629 2.19323626 31.40618758 2.38594886 33.046875 2.578125 C37.03198785 3.04604874 41.01619769 3.52105206 45 4 C45 4.33 45 4.66 45 5 C42.52076199 5.02685095 40.0418116 5.04676547 37.5625 5.0625 C36.85544922 5.07087891 36.14839844 5.07925781 35.41992188 5.08789062 C33.61306441 5.09653588 31.80612397 5.05220011 30 5 C29.67 4.67 29.34 4.34 29 4 C26.64686445 3.92728259 24.29166332 3.91629132 21.9375 3.9375 C20.64714844 3.94652344 19.35679687 3.95554688 18.02734375 3.96484375 C17.02832031 3.97644531 16.02929688 3.98804688 15 4 C16.34191406 4.18175781 16.34191406 4.18175781 17.7109375 4.3671875 C24.86271531 5.35837206 31.94266862 6.47145357 39 8 C39 8.33 39 8.66 39 9 C28.32864245 8.05032415 17.66478185 7.02029037 7 6 C7.33 5.34 7.66 4.68 8 4 C5.08235 2.0549 3.37462715 1.54723683 0 1 C0 0.67 0 0.34 0 0 Z " fill="#63BDC0" transform="translate(147,192)"/>
<path d="M0 0 C-0.33 0.99 -0.66 1.98 -1 3 C-4.62129825 4.55492975 -8.73312428 4.12618839 -12.609375 4.09765625 C-13.33618469 4.0962413 -14.06299438 4.09482635 -14.81182861 4.09336853 C-17.12459494 4.08778792 -19.43726312 4.07523904 -21.75 4.0625 C-23.32161318 4.05748249 -24.89322789 4.05292002 -26.46484375 4.04882812 C-30.30993343 4.03782485 -34.1549501 4.02057361 -38 4 C-38 3.34 -38 2.68 -38 2 C-39.32 1.67 -40.64 1.34 -42 1 C-36.66147616 0.85690869 -31.32293443 0.71451117 -25.984375 0.57275391 C-24.16861472 0.52444171 -22.35285945 0.47594062 -20.53710938 0.42724609 C-17.92579425 0.35724913 -15.31446178 0.28793363 -12.703125 0.21875 C-11.89256653 0.19687622 -11.08200806 0.17500244 -10.24688721 0.15246582 C-6.82941942 0.06249673 -3.41893646 0 0 0 Z " fill="#4DB6C6" transform="translate(69,73)"/>
<path d="M0 0 C0.99 0.495 0.99 0.495 2 1 C3.25148033 5.75562525 3.02180664 10.49651514 2.96875 15.37109375 C3.00390772 18.32873733 3.40617616 21.10510879 4 24 C4 24.66 4 25.32 4 26 C18.19 26.33 32.38 26.66 47 27 C47 27.33 47 27.66 47 28 C41.39529513 28.19272719 35.79038259 28.37137534 30.18481445 28.53710938 C28.27876824 28.59543293 26.37283474 28.65757184 24.46704102 28.72363281 C21.72432988 28.81803643 18.98150343 28.89861713 16.23828125 28.9765625 C14.96456413 29.02485703 14.96456413 29.02485703 13.66511536 29.0741272 C5.72116881 29.27431875 5.72116881 29.27431875 2 27 C-0.21215723 23.9612951 -0.23624843 21.2623587 -0.1953125 17.578125 C-0.18564453 16.04091797 -0.18564453 16.04091797 -0.17578125 14.47265625 C-0.15902344 13.40917969 -0.14226563 12.34570312 -0.125 11.25 C-0.11597656 10.17105469 -0.10695313 9.09210938 -0.09765625 7.98046875 C-0.07411305 5.32008722 -0.04122799 2.66015664 0 0 Z " fill="#67B5C0" transform="translate(16,119)"/>
<path d="M0 0 C10.56 0 21.12 0 32 0 C31.67 0.99 31.34 1.98 31 3 C15.16 3.495 15.16 3.495 -1 4 C-0.67 2.68 -0.34 1.36 0 0 Z " fill="#62C3C7" transform="translate(146,143)"/>
<path d="M0 0 C0.66 0 1.32 0 2 0 C2.07347656 1.17369141 2.07347656 1.17369141 2.1484375 2.37109375 C2.22320312 3.38300781 2.29796875 4.39492187 2.375 5.4375 C2.44460937 6.44683594 2.51421875 7.45617187 2.5859375 8.49609375 C2.72257813 9.32238281 2.85921875 10.14867188 3 11 C5.62723396 12.31361698 7.72610561 12.21253909 10.6640625 12.31640625 C12.34628906 12.37924805 12.34628906 12.37924805 14.0625 12.44335938 C15.238125 12.48267578 16.41375 12.52199219 17.625 12.5625 C18.80835938 12.60568359 19.99171875 12.64886719 21.2109375 12.69335938 C24.14050328 12.79967426 27.07015588 12.90170642 30 13 C31.0625 14.8125 31.0625 14.8125 32 17 C31.67 17.99 31.34 18.98 31 20 C30.34 20 29.68 20 29 20 C29 18.35 29 16.7 29 15 C27.84213989 15.02356567 27.84213989 15.02356567 26.66088867 15.04760742 C23.16983338 15.10989607 19.67889491 15.14897173 16.1875 15.1875 C14.36508789 15.22520508 14.36508789 15.22520508 12.50585938 15.26367188 C10.76079102 15.27817383 10.76079102 15.27817383 8.98046875 15.29296875 C7.90692139 15.3086792 6.83337402 15.32438965 5.72729492 15.34057617 C3 15 3 15 1.14453125 13.6640625 C-0.62000391 11.09856087 -0.28620737 8.87242847 -0.1875 5.8125 C-0.16042969 4.72582031 -0.13335937 3.63914062 -0.10546875 2.51953125 C-0.07066406 1.68808594 -0.03585938 0.85664062 0 0 Z " fill="#17859C" transform="translate(138,88)"/>
<path d="M0 0 C0 0.99 0 1.98 0 3 C4.62 3 9.24 3 14 3 C14 3.33 14 3.66 14 4 C10.27153308 4.50531187 6.54212492 5.0033133 2.8125 5.5 C1.75740234 5.64308594 0.70230469 5.78617188 -0.38476562 5.93359375 C-1.40634766 6.06894531 -2.42792969 6.20429688 -3.48046875 6.34375 C-4.88655396 6.53227539 -4.88655396 6.53227539 -6.32104492 6.72460938 C-8.90317808 6.99004692 -11.40650989 7.04936064 -14 7 C-14 5.35 -14 3.7 -14 2 C-9.15758367 0.66416101 -5.06562383 -0.25328119 0 0 Z " fill="#62C0C1" transform="translate(14,198)"/>
<path d="M0 0 C23.68981481 3.34490741 23.68981481 3.34490741 29 6 C28.67 7.32 28.34 8.64 28 10 C27.43079834 9.91435791 26.86159668 9.82871582 26.27514648 9.74047852 C23.66263741 9.34755418 21.0500692 8.95502437 18.4375 8.5625 C17.54224609 8.42779297 16.64699219 8.29308594 15.72460938 8.15429688 C10.81890733 7.41754309 5.91193616 6.6940047 1 6 C1 5.67 1 5.34 1 5 C5.62 5 10.24 5 15 5 C10.05 3.68 5.1 2.36 0 1 C0 0.67 0 0.34 0 0 Z " fill="#54ABBA" transform="translate(196,197)"/>
<path d="M0 0 C1.92267907 -0.05953651 3.84849865 0.02172999 5.76953125 0.12109375 C6.42953125 0.78109375 7.08953125 1.44109375 7.76953125 2.12109375 C6.64933594 2.20746094 5.52914062 2.29382813 4.375 2.3828125 C2.90222704 2.52352329 1.4295763 2.66551758 -0.04296875 2.80859375 C-1.14995117 2.88883789 -1.14995117 2.88883789 -2.27929688 2.97070312 C-6.65256688 3.40970053 -6.65256688 3.40970053 -9.93554688 6.1015625 C-11.70852426 10.23583555 -11.7086544 13.90322548 -11.7421875 18.359375 C-11.7601387 19.24014206 -11.7780899 20.12090912 -11.79658508 21.02836609 C-11.85058785 23.83006055 -11.88455141 26.63158562 -11.91796875 29.43359375 C-11.9511507 31.33791414 -11.98564118 33.24221221 -12.02148438 35.14648438 C-12.10630853 39.80456509 -12.17316749 44.46259645 -12.23046875 49.12109375 C-12.56046875 49.12109375 -12.89046875 49.12109375 -13.23046875 49.12109375 C-13.30462967 42.92808656 -13.35907631 36.73533791 -13.39526367 30.54199219 C-13.41034944 28.43517555 -13.43082068 26.32839031 -13.45678711 24.22167969 C-13.49317928 21.19328055 -13.51019725 18.16529666 -13.5234375 15.13671875 C-13.53892136 14.1949176 -13.55440521 13.25311646 -13.57035828 12.28277588 C-13.57058487 11.40216492 -13.57081146 10.52155396 -13.57104492 9.61425781 C-13.57770676 8.84148499 -13.58436859 8.06871216 -13.5912323 7.27252197 C-13.12449004 4.48908537 -12.18381673 3.13943533 -10.23046875 1.12109375 C-6.74840483 0.41287736 -3.52844548 0.19156184 0 0 Z " fill="#74CECD" transform="translate(91.23046875,27.87890625)"/>
<path d="M0 0 C13.23652871 -0.7824549 13.23652871 -0.7824549 19 4 C22.05061091 9.01874697 22.90725436 14.21478061 22 20 C21.34 20.66 20.68 21.32 20 22 C19.67 17.05 19.34 12.1 19 7 C18.34 7 17.68 7 17 7 C17 9.31 17 11.62 17 14 C16.67 14 16.34 14 16 14 C15.938125 13.05125 15.87625 12.1025 15.8125 11.125 C15.4103125 9.578125 15.4103125 9.578125 15 8 C12.53744315 6.54708727 12.53744315 6.54708727 10 6 C10 5.34 10 4.68 10 4 C8.68 3.67 7.36 3.34 6 3 C7.65 2.67 9.3 2.34 11 2 C7.37 1.67 3.74 1.34 0 1 C0 0.67 0 0.34 0 0 Z " fill="#429FB9" transform="translate(53,142)"/>
<path d="M0 0 C0.33 0 0.66 0 1 0 C1.02683987 2.97922593 1.04676037 5.95821295 1.0625 8.9375 C1.07087891 9.78763672 1.07925781 10.63777344 1.08789062 11.51367188 C1.09111328 12.32255859 1.09433594 13.13144531 1.09765625 13.96484375 C1.10289307 14.7137085 1.10812988 15.46257324 1.11352539 16.23413086 C1 18 1 18 0 19 C-1.41225046 19.0928726 -2.82908934 19.11746772 -4.24438477 19.11352539 C-5.14524307 19.11344986 -6.04610138 19.11337433 -6.97425842 19.11329651 C-7.95341721 19.10813522 -8.93257599 19.10297394 -9.94140625 19.09765625 C-10.93881332 19.0962413 -11.9362204 19.09482635 -12.96385193 19.09336853 C-16.16343124 19.08775114 -19.36294169 19.07519571 -22.5625 19.0625 C-24.72591045 19.05748724 -26.88932199 19.05292395 -29.05273438 19.04882812 C-34.36851325 19.03777607 -39.68425171 19.02102104 -45 19 C-45 18.67 -45 18.34 -45 18 C-30.48 17.67 -15.96 17.34 -1 17 C-1 11.72 -1 6.44 -1 1 C-0.67 0.67 -0.34 0.34 0 0 Z " fill="#2D90A8" transform="translate(74,120)"/>
<path d="M0 0 C1.12138618 0.00212242 1.12138618 0.00212242 2.26542664 0.00428772 C4.6392324 0.00985861 7.01294178 0.02240565 9.38671875 0.03515625 C11.00195176 0.04017502 12.61718625 0.04473726 14.23242188 0.04882812 C18.1797243 0.0598185 22.12695522 0.07706293 26.07421875 0.09765625 C26.07421875 0.42765625 26.07421875 0.75765625 26.07421875 1.09765625 C22.44421875 1.42765625 18.81421875 1.75765625 15.07421875 2.09765625 C15.07421875 2.42765625 15.07421875 2.75765625 15.07421875 3.09765625 C10.78260828 3.15549467 6.4910973 3.19119745 2.19921875 3.22265625 C0.97589844 3.23941406 -0.24742188 3.25617187 -1.5078125 3.2734375 C-3.25771484 3.28310547 -3.25771484 3.28310547 -5.04296875 3.29296875 C-6.12175293 3.30344238 -7.20053711 3.31391602 -8.31201172 3.32470703 C-10.92578125 3.09765625 -10.92578125 3.09765625 -12.92578125 1.09765625 C-8.60805881 0.03386956 -4.41835869 -0.03176535 0 0 Z " fill="#8FCBCB" transform="translate(101.92578125,20.90234375)"/>
<path d="M0 0 C0.70189453 0.01353516 1.40378906 0.02707031 2.12695312 0.04101562 C3.85579829 0.07629818 5.58424765 0.13010417 7.3125 0.1875 C7.3125 0.5175 7.3125 0.8475 7.3125 1.1875 C5.93964844 1.24357422 5.93964844 1.24357422 4.5390625 1.30078125 C3.35054687 1.36652344 2.16203125 1.43226562 0.9375 1.5 C-0.24585937 1.55800781 -1.42921875 1.61601563 -2.6484375 1.67578125 C-3.65132813 1.84464844 -4.65421875 2.01351562 -5.6875 2.1875 C-7.79233837 5.34475756 -7.99638017 6.58600283 -8.25 10.25 C-8.59144511 14.99539022 -8.59144511 14.99539022 -9.6875 17.1875 C-3.7475 17.5175 2.1925 17.8475 8.3125 18.1875 C8.3125 18.5175 8.3125 18.8475 8.3125 19.1875 C7.35988281 19.21328125 6.40726563 19.2390625 5.42578125 19.265625 C4.17152344 19.32234375 2.91726562 19.3790625 1.625 19.4375 C0.38363281 19.48390625 -0.85773438 19.5303125 -2.13671875 19.578125 C-6.10341675 20.25887845 -7.81454336 21.44088754 -10.6875 24.1875 C-10.77453823 20.75015937 -10.82790272 17.31310163 -10.875 13.875 C-10.90013672 12.89853516 -10.92527344 11.92207031 -10.95117188 10.91601562 C-10.96083984 9.97822266 -10.97050781 9.04042969 -10.98046875 8.07421875 C-10.9961792 7.21014404 -11.01188965 6.34606934 -11.02807617 5.45581055 C-10.6875 3.1875 -10.6875 3.1875 -9.39257812 1.40039062 C-6.55453761 -0.6184217 -3.34211028 -0.12170149 0 0 Z " fill="#5DC7C6" transform="translate(88.6875,118.8125)"/>
<path d="M0 0 C0.66 1.32 1.32 2.64 2 4 C-1.80040099 7.55185063 -4.06975262 8.50040191 -9.25390625 8.4609375 C-10.43791016 8.45707031 -11.62191406 8.45320313 -12.84179688 8.44921875 C-14.68354492 8.41248047 -14.68354492 8.41248047 -16.5625 8.375 C-17.79419922 8.37371094 -19.02589844 8.37242188 -20.29492188 8.37109375 C-29.43716996 8.28141502 -29.43716996 8.28141502 -34 6 C-24.43 6 -14.86 6 -5 6 C-4.34 4.68 -3.68 3.36 -3 2 C-2.34 2 -1.68 2 -1 2 C-0.67 1.34 -0.34 0.68 0 0 Z " fill="#53B3BB" transform="translate(133,95)"/>
<path d="M0 0 C0.99 0.99 1.98 1.98 3 3 C3.33 2.01 3.66 1.02 4 0 C4.66 0 5.32 0 6 0 C5.67 1.65 5.34 3.3 5 5 C6.95766281 5.08082094 8.91626728 5.13910778 10.875 5.1875 C11.96554688 5.22230469 13.05609375 5.25710937 14.1796875 5.29296875 C15.57574219 5.14794922 15.57574219 5.14794922 17 5 C17.66 4.01 18.32 3.02 19 2 C19 2.66 19 3.32 19 4 C19.99 4 20.98 4 22 4 C22 4.66 22 5.32 22 6 C22.66 6.33 23.32 6.66 24 7 C21.29748531 7.74510521 18.79450535 8.15513197 15.99609375 8.28125 C14.88524414 8.33732422 14.88524414 8.33732422 13.75195312 8.39453125 C12.20508621 8.46502139 10.65821115 8.535333 9.11132812 8.60546875 C5.86925186 8.76940983 3.09599157 8.96800281 0 10 C0 6.7 0 3.4 0 0 Z " fill="#68EBD8" transform="translate(26,94)"/>
<path d="M0 0 C0.66 0.33 1.32 0.66 2 1 C2 18.16 2 35.32 2 53 C1.67 53 1.34 53 1 53 C0.97494385 52.21874756 0.9498877 51.43749512 0.92407227 50.63256836 C0.80749797 47.06740383 0.68505135 43.50246387 0.5625 39.9375 C0.52318359 38.70837891 0.48386719 37.47925781 0.44335938 36.21289062 C0.2073134 29.20850178 0.2073134 29.20850178 -0.5625 22.25 C-1.1611956 17.802547 -0.85795058 13.5282186 -0.5625 9.0625 C-0.51029297 8.18787109 -0.45808594 7.31324219 -0.40429688 6.41210938 C-0.2757979 4.27435368 -0.13877359 2.13711331 0 0 Z " fill="#51AEB7" transform="translate(20,88)"/>
<path d="M0 0 C0.74572266 -0.00386719 1.49144531 -0.00773437 2.25976562 -0.01171875 C7.81086499 -0.00163501 7.81086499 -0.00163501 8.9375 1.125 C9.01063567 3.65549402 9.02997527 6.15804837 9 8.6875 C8.99548828 9.39841797 8.99097656 10.10933594 8.98632812 10.84179688 C8.97450864 12.60290013 8.95657263 14.36396036 8.9375 16.125 C8.2775 16.125 7.6175 16.125 6.9375 16.125 C6.6075 11.505 6.2775 6.885 5.9375 2.125 C0.25573371 2.125 -2.24188837 2.71469418 -7.0625 5.125 C-7.0625 4.465 -7.0625 3.805 -7.0625 3.125 C-8.0525 3.125 -9.0425 3.125 -10.0625 3.125 C-10.0625 2.465 -10.0625 1.805 -10.0625 1.125 C-6.88856311 -0.46196844 -3.48075795 -0.0181447 0 0 Z " fill="#0D8298" transform="translate(37.0625,101.875)"/>
<path d="M0 0 C1.48168945 1.05786133 1.48168945 1.05786133 3 3 C3.34057617 6.1862793 3.34057617 6.1862793 3.29296875 10.07421875 C3.28872391 10.7580513 3.28447906 11.44188385 3.28010559 12.1464386 C3.26333353 14.32719561 3.22568657 16.50702309 3.1875 18.6875 C3.17245114 20.16730435 3.15876308 21.6471232 3.14648438 23.12695312 C3.11343569 26.75160336 3.06166446 30.37571094 3 34 C0.525 34.495 0.525 34.495 -2 35 C-1.67402832 34.1529248 -1.34805664 33.30584961 -1.01220703 32.43310547 C0.06389776 28.78327778 0.22890593 25.86637061 0.1953125 22.0703125 C0.18886719 20.78125 0.18242187 19.4921875 0.17578125 18.1640625 C0.15907463 16.81770558 0.14214479 15.47135141 0.125 14.125 C0.11495664 12.75521483 0.10583317 11.38542258 0.09765625 10.015625 C0.07414412 6.67690244 0.0412793 3.33854239 0 0 Z " fill="#2385A2" transform="translate(186,83)"/>
<path d="M0 0 C1.60488281 0.00483398 1.60488281 0.00483398 3.2421875 0.00976562 C4.35335937 0.01814453 5.46453125 0.02652344 6.609375 0.03515625 C8.29933594 0.04192383 8.29933594 0.04192383 10.0234375 0.04882812 C12.80213717 0.06060228 15.58072909 0.07704785 18.359375 0.09765625 C15.1150104 3.01556508 13.04081494 3.45959412 8.71875 3.390625 C7.11386719 3.37612305 7.11386719 3.37612305 5.4765625 3.36132812 C4.36539063 3.33619141 3.25421875 3.31105469 2.109375 3.28515625 C0.41941406 3.26485352 0.41941406 3.26485352 -1.3046875 3.24414062 C-4.08381764 3.2088127 -6.86197863 3.15948145 -9.640625 3.09765625 C-9.640625 2.43765625 -9.640625 1.77765625 -9.640625 1.09765625 C-6.36436125 0.11545685 -3.41274381 -0.01815289 0 0 Z " fill="#55C0C9" transform="translate(173.640625,73.90234375)"/>
<path d="M0 0 C0.99 0.33 1.98 0.66 3 1 C4.62567079 1.14715199 6.25586857 1.24721867 7.88671875 1.31640625 C8.82451172 1.35830078 9.76230469 1.40019531 10.72851562 1.44335938 C11.70498047 1.48267578 12.68144531 1.52199219 13.6875 1.5625 C15.16959961 1.62727539 15.16959961 1.62727539 16.68164062 1.69335938 C19.12095546 1.79941654 21.56037113 1.90147714 24 2 C22.68 2.33 21.36 2.66 20 3 C20 3.66 20 4.32 20 5 C13.73 5 7.46 5 1 5 C0.67 3.35 0.34 1.7 0 0 Z " fill="#5EC9CB" transform="translate(144,72)"/>
<path d="M0 0 C0 0.33 0 0.66 0 1 C-2.64 1.66 -5.28 2.32 -8 3 C-7.979375 4.010625 -7.95875 5.02125 -7.9375 6.0625 C-7.99687734 9.80327257 -8.39795085 13.31244898 -9 17 C-6.69 17.33 -4.38 17.66 -2 18 C-2 18.66 -2 19.32 -2 20 C-4.97 20 -7.94 20 -11 20 C-11.08089542 17.22858283 -11.14044062 14.45952181 -11.1875 11.6875 C-11.22520508 10.50897461 -11.22520508 10.50897461 -11.26367188 9.30664062 C-11.27333984 8.54931641 -11.28300781 7.79199219 -11.29296875 7.01171875 C-11.3086792 6.31522217 -11.32438965 5.61872559 -11.34057617 4.90112305 C-10.23549577 -1.26752289 -4.90564396 -0.24126118 0 0 Z " fill="#02839B" transform="translate(109,30)"/>
<path d="M0 0 C0.66 0.33 1.32 0.66 2 1 C1.89011864 5.25053264 1.75948796 9.50018035 1.625 13.75 C1.5940625 14.9565625 1.563125 16.163125 1.53125 17.40625 C1.49257812 18.56640625 1.45390625 19.7265625 1.4140625 20.921875 C1.36693115 22.52434082 1.36693115 22.52434082 1.31884766 24.15917969 C1.00799852 26.92873598 0.42329468 28.63283621 -1 31 C-1.02902168 26.58334712 -1.04680608 22.16671877 -1.0625 17.75 C-1.07087891 16.49574219 -1.07925781 15.24148437 -1.08789062 13.94921875 C-1.09111328 12.74394531 -1.09433594 11.53867188 -1.09765625 10.296875 C-1.10289307 9.18666992 -1.10812988 8.07646484 -1.11352539 6.93261719 C-1.01658493 4.42842621 -0.73230276 2.3818844 0 0 Z " fill="#5DD2C7" transform="translate(141,149)"/>
<path d="M0 0 C5.1321316 -0.25903503 9.46944626 0.68712124 14.375 2 C15.11105469 2.19078125 15.84710938 2.3815625 16.60546875 2.578125 C18.40533622 3.04562304 20.20291548 3.52191576 22 4 C21.67 4.66 21.34 5.32 21 6 C12.92138585 6.09579384 5.01659634 6.12513633 -3 5 C-3 4.67 -3 4.34 -3 4 C-0.36 4 2.28 4 5 4 C3.74458443 1.48916886 2.49936512 1.12874554 0 0 Z " fill="#55B7C5" transform="translate(190,197)"/>
<path d="M0 0 C0 0.33 0 0.66 0 1 C-3.3 1 -6.6 1 -10 1 C-10 1.99 -10 2.98 -10 4 C-5.71 4 -1.42 4 3 4 C3 4.33 3 4.66 3 5 C-5.415 5.495 -5.415 5.495 -14 6 C-14.33 5.34 -14.66 4.68 -15 4 C-16.6396875 4.061875 -16.6396875 4.061875 -18.3125 4.125 C-22 4 -22 4 -25 2 C-16.6030674 0.62707087 -8.51372785 -0.31274919 0 0 Z " fill="#5BB5C0" transform="translate(48,194)"/>
<path d="M0 0 C0.33 0 0.66 0 1 0 C1 6.6 1 13.2 1 20 C0.34 19.34 -0.32 18.68 -1 18 C-0.9765625 15.1796875 -0.9765625 15.1796875 -0.625 11.875 C-0.51414062 10.77929688 -0.40328125 9.68359375 -0.2890625 8.5546875 C-0.14597656 7.29011719 -0.14597656 7.29011719 0 6 C-4.65052872 5.73067479 -4.65052872 5.73067479 -9 7 C-11.01927511 6.39421747 -13.02253397 5.73080266 -15 5 C-15 4.34 -15 3.68 -15 3 C-10.05 3 -5.1 3 0 3 C0 2.01 0 1.02 0 0 Z " fill="#13809D" transform="translate(114,168)"/>
<path d="M0 0 C0.33 0.66 0.66 1.32 1 2 C1.69867188 1.97679687 2.39734375 1.95359375 3.1171875 1.9296875 C4.02726562 1.91164062 4.93734375 1.89359375 5.875 1.875 C7.23238281 1.84019531 7.23238281 1.84019531 8.6171875 1.8046875 C11 2 11 2 13 4 C10.03 4 7.06 4 4 4 C3.67 4.66 3.34 5.32 3 6 C-1.29 5.67 -5.58 5.34 -10 5 C-10 4.01 -10 3.02 -10 2 C-6.7 2 -3.4 2 0 2 C0 1.34 0 0.68 0 0 Z " fill="#45B6C9" transform="translate(48,193)"/>
<path d="M0 0 C2.77170395 0.11386459 5.54178046 0.24060778 8.3125 0.375 C9.49102539 0.42140625 9.49102539 0.42140625 10.69335938 0.46875 C11.8293457 0.52675781 11.8293457 0.52675781 12.98828125 0.5859375 C14.03302612 0.63306885 14.03302612 0.63306885 15.09887695 0.68115234 C17 1 17 1 20 3 C13.95180188 3.88902912 8.10776514 4.12348383 2 4.0625 C1.12988281 4.05798828 0.25976562 4.05347656 -0.63671875 4.04882812 C-2.75784293 4.0371736 -4.8789311 4.01924357 -7 4 C-7 3.67 -7 3.34 -7 3 C-4.36 3 -1.72 3 1 3 C0.67 2.01 0.34 1.02 0 0 Z " fill="#4CB0C8" transform="translate(47,142)"/>
<path d="M0 0 C0.33 0 0.66 0 1 0 C1.22786458 1.953125 1.45572917 3.90625 1.68359375 5.859375 C1.94407499 7.97731561 1.94407499 7.97731561 2.5625 9.875 C3.15639681 12.75964166 2.84857857 15.32564124 2.5625 18.25 C2.40974609 19.86648437 2.40974609 19.86648437 2.25390625 21.515625 C2.17011719 22.33546875 2.08632812 23.1553125 2 24 C1.01 24 0.02 24 -1 24 C-1.02893932 20.37501666 -1.04677792 16.75006287 -1.0625 13.125 C-1.07087891 12.09246094 -1.07925781 11.05992188 -1.08789062 9.99609375 C-1.09111328 9.00996094 -1.09433594 8.02382813 -1.09765625 7.0078125 C-1.10289307 6.09660645 -1.10812988 5.18540039 -1.11352539 4.24658203 C-1 2 -1 2 0 0 Z " fill="#1178A6" transform="translate(115,53)"/>
<path d="M0 0 C0 0.99 0 1.98 0 3 C-0.66 3 -1.32 3 -2 3 C-2 3.66 -2 4.32 -2 5 C-3.98 5.99 -3.98 5.99 -6 7 C-6 6.01 -6 5.02 -6 4 C-7.62580966 4.11398665 -9.25067157 4.24155659 -10.875 4.375 C-12.23238281 4.47941406 -12.23238281 4.47941406 -13.6171875 4.5859375 C-16.17941903 4.79568132 -16.17941903 4.79568132 -18 7 C-20.125 6.625 -20.125 6.625 -22 6 C-21.03515625 4.04296875 -21.03515625 4.04296875 -19 2 C-16.0376816 1.56842338 -13.40379828 1.34942487 -10.4375 1.3125 C-5.05398726 1.41818373 -5.05398726 1.41818373 0 0 Z " fill="#3FC1D2" transform="translate(134,80)"/>
<path d="M0 0 C-0.33 0.99 -0.66 1.98 -1 3 C-4.34029753 4.35502636 -7.93817404 4.20098405 -11.5 4.25 C-13.18609375 4.28867188 -13.18609375 4.28867188 -14.90625 4.328125 C-18.25342807 3.97312127 -19.5728226 3.2606064 -22 1 C-19.08340625 0.83196579 -16.16673658 0.66552033 -13.25 0.5 C-12.0125 0.42845703 -12.0125 0.42845703 -10.75 0.35546875 C-9.55117188 0.28779297 -9.55117188 0.28779297 -8.328125 0.21875 C-7.5949707 0.17685547 -6.86181641 0.13496094 -6.10644531 0.09179688 C-4.07266386 0.00316662 -2.03571175 0 0 0 Z " fill="#43AAC2" transform="translate(69,73)"/>
<path d="M0 0 C2.97 0.495 2.97 0.495 6 1 C6 1.99 6 2.98 6 4 C3.62556577 4.22354724 1.25174905 4.429163 -1.125 4.625 C-1.79015625 4.68945312 -2.4553125 4.75390625 -3.140625 4.8203125 C-7.58755057 5.16909098 -10.87730181 4.68247185 -15 3 C-15 2.67 -15 2.34 -15 2 C-10.05 2 -5.1 2 0 2 C0 1.34 0 0.68 0 0 Z " fill="#6BD4D0" transform="translate(128,20)"/>
<path d="M0 0 C0.66 1.32 1.32 2.64 2 4 C0.35 4.66 -1.3 5.32 -3 6 C-3 6.33 -3 6.66 -3 7 C-4.65 7 -6.3 7 -8 7 C-8 5.35 -8 3.7 -8 2 C-5.36 1.34 -2.72 0.68 0 0 Z " fill="#5CCACA" transform="translate(8,198)"/>
<path d="M0 0 C1.60875 0.2784375 1.60875 0.2784375 3.25 0.5625 C6.73082581 1.19242859 6.73082581 1.19242859 9 0.5 C12.09443951 -0.27360988 14.89771426 0.46306593 18 1 C14.90146278 4.09853722 11.25131314 3.84333519 7 4 C3.4375 3.5625 3.4375 3.5625 1 3 C0.67 2.01 0.34 1.02 0 0 Z " fill="#4BCBDA" transform="translate(19,142)"/>
<path d="M0 0 C0.33 0 0.66 0 1 0 C1 1.98 1 3.96 1 6 C-7.415 6.495 -7.415 6.495 -16 7 C-15.67 6.01 -15.34 5.02 -15 4 C-10.05 4 -5.1 4 0 4 C0 2.68 0 1.36 0 0 Z " fill="#52B9CF" transform="translate(193,138)"/>
<path d="M0 0 C7.75 0.875 7.75 0.875 10 2 C9.67 3.32 9.34 4.64 9 6 C4.71 5.34 0.42 4.68 -4 4 C-4 3.67 -4 3.34 -4 3 C-2.02 2.67 -0.04 2.34 2 2 C1.34 1.34 0.68 0.68 0 0 Z " fill="#51A2B4" transform="translate(215,201)"/>
<path d="M0 0 C0.33 0 0.66 0 1 0 C1 5.61 1 11.22 1 17 C-0.32 16.67 -1.64 16.34 -3 16 C-3 15.34 -3 14.68 -3 14 C-2.34 13.67 -1.68 13.34 -1 13 C-1.09539062 12.22914063 -1.19078125 11.45828125 -1.2890625 10.6640625 C-1.39992187 9.66117188 -1.51078125 8.65828125 -1.625 7.625 C-1.74101562 6.62726563 -1.85703125 5.62953125 -1.9765625 4.6015625 C-1.98429688 3.74304688 -1.99203125 2.88453125 -2 2 C-1.34 1.34 -0.68 0.68 0 0 Z " fill="#38A1C0" transform="translate(187,116)"/>
<path d="M0 0 C1.05960938 0.00676758 1.05960938 0.00676758 2.140625 0.01367188 C3.88545275 0.02546125 5.630237 0.04339676 7.375 0.0625 C7.375 0.3925 7.375 0.7225 7.375 1.0625 C6.323125 1.18625 5.27125 1.31 4.1875 1.4375 C0.16002961 2.09774105 -3.00558266 3.25279133 -6.625 5.0625 C-6.625 4.4025 -6.625 3.7425 -6.625 3.0625 C-7.615 3.0625 -8.605 3.0625 -9.625 3.0625 C-9.625 2.4025 -9.625 1.7425 -9.625 1.0625 C-6.55966836 -0.47016582 -3.35745728 -0.04026471 0 0 Z " fill="#028492" transform="translate(36.625,101.9375)"/>
<path d="M0 0 C0.84046875 0.01804687 1.6809375 0.03609375 2.546875 0.0546875 C4.61507395 0.10169202 6.68268441 0.17343276 8.75 0.25 C8.75 0.58 8.75 0.91 8.75 1.25 C7.05230469 1.28867188 7.05230469 1.28867188 5.3203125 1.328125 C3.83850257 1.38439626 2.35673323 1.44174382 0.875 1.5 C0.12863281 1.51417969 -0.61773437 1.52835937 -1.38671875 1.54296875 C-3.82138381 1.60986341 -3.82138381 1.60986341 -7.25 2.25 C-8.85337399 4.15628782 -8.85337399 4.15628782 -9.25 6.25 C-10.57 5.59 -11.89 4.93 -13.25 4.25 C-9.61313898 -0.82561922 -5.70594104 -0.23180385 0 0 Z " fill="#0CA3C0" transform="translate(151.25,82.75)"/>
<path d="M0 0 C0.66 0 1.32 0 2 0 C2 1.98 2 3.96 2 6 C4.31 6 6.62 6 9 6 C8.67 6.99 8.34 7.98 8 9 C1.25 8.25 1.25 8.25 -1 6 C-0.625 2.875 -0.625 2.875 0 0 Z " fill="#65C0CB" transform="translate(18,139)"/>
<path d="M0 0 C2.43847451 0.11397544 4.87513174 0.24070974 7.3125 0.375 C8.00279297 0.4059375 8.69308594 0.436875 9.40429688 0.46875 C13.06990789 0.68124919 14.87900792 0.91933861 18 3 C11.04952816 4.21357445 6.49976102 3.71975816 0 1 C0 0.67 0 0.34 0 0 Z " fill="#36BFDB" transform="translate(49,142)"/>
<path d="M0 0 C5.94 0.33 11.88 0.66 18 1 C18 1.33 18 1.66 18 2 C17.03578125 2.04898438 16.0715625 2.09796875 15.078125 2.1484375 C13.81484375 2.22320312 12.5515625 2.29796875 11.25 2.375 C9.37054688 2.47941406 9.37054688 2.47941406 7.453125 2.5859375 C4.39001879 2.95323304 2.58025734 3.39711286 0 5 C0 3.35 0 1.7 0 0 Z " fill="#54DEE0" transform="translate(79,136)"/>
<path d="M0 0 C0.33 0 0.66 0 1 0 C2 7.625 2 7.625 2 11 C1.34 11.66 0.68 12.32 0 13 C0.33 13.66 0.66 14.32 1 15 C-0.32 14.67 -1.64 14.34 -3 14 C-2.5359375 13.0409375 -2.5359375 13.0409375 -2.0625 12.0625 C-0.68064597 8.07950896 -0.3463457 4.18349151 0 0 Z " fill="#49C6D6" transform="translate(116,176)"/>
<path d="M0 0 C1.36511719 0.29197266 1.36511719 0.29197266 2.7578125 0.58984375 C3.45648438 0.74582031 4.15515625 0.90179688 4.875 1.0625 C4.545 1.7225 4.215 2.3825 3.875 3.0625 C-0.18106165 2.59449289 -3.59088679 2.18296792 -7.125 0.0625 C-4.4030754 -1.2984623 -2.9418043 -0.64116248 0 0 Z " fill="#46B4C2" transform="translate(207.125,199.9375)"/>
<path d="M0 0 C0.33 0.99 0.66 1.98 1 3 C3.31 3.33 5.62 3.66 8 4 C8 4.66 8 5.32 8 6 C5.03 6 2.06 6 -1 6 C-0.67 4.02 -0.34 2.04 0 0 Z " fill="#13879C" transform="translate(99,44)"/>
<path d="M0 0 C0.66 0 1.32 0 2 0 C2.33 2.31 2.66 4.62 3 7 C1.68 6.67 0.36 6.34 -1 6 C-1.042721 4.33388095 -1.04063832 2.66617115 -1 1 C-0.67 0.67 -0.34 0.34 0 0 Z " fill="#11829E" transform="translate(168,112)"/>
<path d="M0 0 C1.37478516 0.01740234 1.37478516 0.01740234 2.77734375 0.03515625 C3.69644531 0.04417969 4.61554688 0.05320312 5.5625 0.0625 C6.27277344 0.07410156 6.98304687 0.08570312 7.71484375 0.09765625 C7.71484375 0.42765625 7.71484375 0.75765625 7.71484375 1.09765625 C6.10609375 1.19046875 6.10609375 1.19046875 4.46484375 1.28515625 C0.57952414 1.75911584 0.57952414 1.75911584 -1.72265625 4.66015625 C-2.23828125 5.46453125 -2.75390625 6.26890625 -3.28515625 7.09765625 C-3.32769981 5.09810879 -3.32596408 3.09723989 -3.28515625 1.09765625 C-2.28515625 0.09765625 -2.28515625 0.09765625 0 0 Z " fill="#64CDC8" transform="translate(82.28515625,29.90234375)"/>
<path d="M0 0 C0.66 0.33 1.32 0.66 2 1 C1.67 1.66 1.34 2.32 1 3 C2.65 2.67 4.3 2.34 6 2 C6 2.66 6 3.32 6 4 C4.35 4.66 2.7 5.32 1 6 C1 5.34 1 4.68 1 4 C-0.32 4.33 -1.64 4.66 -3 5 C-1.125 1.125 -1.125 1.125 0 0 Z " fill="#6DC3C4" transform="translate(144,144)"/>
<path d="M0 0 C0.66 0 1.32 0 2 0 C2 2.97 2 5.94 2 9 C1.01 9 0.02 9 -1 9 C-0.67 6.03 -0.34 3.06 0 0 Z " fill="#12859F" transform="translate(115,68)"/>
<path d="M0 0 C0.33 0.66 0.66 1.32 1 2 C1.99 2 2.98 2 4 2 C4 2.66 4 3.32 4 4 C4.66 4.33 5.32 4.66 6 5 C3.6875 5.625 3.6875 5.625 1 6 C0.01 5.34 -0.98 4.68 -2 4 C-1.34 2.68 -0.68 1.36 0 0 Z " fill="#61E6CC" transform="translate(44,96)"/>
<path d="M0 0 C1.98 0 3.96 0 6 0 C5.67 0.99 5.34 1.98 5 3 C3.02 3 1.04 3 -1 3 C-0.67 2.01 -0.34 1.02 0 0 Z " fill="#45C6DE" transform="translate(178,142)"/>
<path d="M0 0 C0.99 0.495 0.99 0.495 2 1 C2.89093449 4.64473199 3.23666047 7.42742531 2 11 C0.57741188 7.17679443 -0.24042276 4.08718695 0 0 Z " fill="#66BCC1" transform="translate(16,119)"/>
<path d="M0 0 C1.32 0.33 2.64 0.66 4 1 C3.34 2.32 2.68 3.64 2 5 C0.35 5 -1.3 5 -3 5 C-2.01 3.35 -1.02 1.7 0 0 Z " fill="#48C8CC" transform="translate(115,82)"/>
</svg>
